<svg width="210" height="90" viewBox="0 0 210 90" fill="none" xmlns="http://www.w3.org/2000/svg">
<path d="M114.951 34.2191C115.045 34.2227 115.14 34.2155 115.232 34.1977C115.951 34.1117 116.623 33.7982 117.148 33.3036C117.674 32.809 118.025 32.1596 118.15 31.4515C118.366 30.0355 117.458 28.8555 116.075 28.7053C115.989 28.7053 115.88 28.6839 115.794 28.6839C115.7 28.6803 115.606 28.6875 115.513 28.7053C114.794 28.7914 114.122 29.1049 113.597 29.5995C113.071 30.094 112.72 30.7434 112.596 31.4515C112.539 31.79 112.554 32.1364 112.64 32.4688C112.726 32.8011 112.88 33.1123 113.093 33.3824C113.32 33.6501 113.605 33.8641 113.927 34.0088C114.248 34.1536 114.598 34.2254 114.951 34.2191Z" fill="black"/>
<path d="M180 57.2612C180 53.4852 178.141 50.0311 176.499 46.9845C175.094 44.3885 173.841 42.0285 174.165 40.2693C174.403 39.0035 175.31 38.274 176.715 38.1882C176.758 38.1882 176.802 38.1667 176.845 38.1667C176.914 38.1393 176.979 38.1033 177.039 38.0595C177.1 38.0179 177.146 37.9576 177.169 37.8878C177.169 37.8664 177.191 37.8664 177.191 37.8449L177.882 36.0642C177.917 35.9947 177.937 35.9188 177.941 35.8412C177.945 35.7636 177.932 35.6861 177.904 35.6136C177.852 35.5129 177.778 35.425 177.688 35.3562C177.497 35.2263 177.285 35.1318 177.061 35.0773C176.628 34.9384 176.176 34.866 175.721 34.8627C173.69 34.8627 171.204 35.5278 169.043 40.87C168.957 41.0845 164.786 51.8118 164.656 52.1551C164.138 53.4209 163.035 54.9441 160.702 54.9441C159.686 54.9441 158.865 54.558 158.411 53.9143C158.331 53.7903 158.258 53.6613 158.195 53.5282C158.007 53.0503 157.962 52.5289 158.065 52.0263C158.108 51.8332 158.151 51.6187 158.216 51.4042C158.339 51.0033 158.483 50.6094 158.648 50.2242C160.248 46.1693 165.931 31.7304 167.682 27.2893C167.898 26.7315 167.595 26.2809 166.99 26.2809H164.98C164.753 26.2845 164.531 26.3435 164.332 26.4526C163.968 26.6276 163.678 26.9236 163.511 27.2893C162.733 29.2417 161.631 32.0737 160.464 35.0558C159.556 37.3515 158.627 39.7329 157.762 41.8998C157.499 41.4702 157.203 41.0614 156.876 40.6769C156.536 40.2927 156.168 39.9341 155.774 39.6042C154.027 38.2017 151.84 37.4503 149.594 37.4802C146.698 37.4802 143.91 38.6387 141.727 40.5267C141.641 40.5911 141.576 40.6769 141.489 40.7413C141.403 40.8056 141.381 40.8485 141.317 40.8915C139.882 42.2275 138.773 43.8712 138.075 45.6973C138.075 45.7187 138.053 45.7402 138.053 45.7831C137.967 46.0191 137.902 46.2551 137.816 46.5125C137.682 46.9624 137.581 47.4213 137.513 47.8856C137.448 48.3147 137.405 48.7438 137.383 49.1729C137.341 50.39 137.524 51.6044 137.924 52.7558C137.716 53.0845 137.47 53.3871 137.189 53.6569C136.382 54.4199 135.338 54.8888 134.228 54.9871H133.926C133.513 54.984 133.104 54.9115 132.715 54.7725C132.275 54.6151 131.891 54.3314 131.613 53.9572C131.116 53.2492 131.116 52.2194 131.57 51.0394C131.678 50.7391 132.37 48.9154 132.996 47.2849C133.472 46.0191 133.904 44.8391 133.99 44.6031C134.034 44.4744 134.12 44.2813 134.185 44.0453C134.341 43.4753 134.296 42.8693 134.055 42.3289C133.935 42.0881 133.782 41.8644 133.601 41.6638C133.251 41.3273 132.831 41.071 132.37 40.9129C132.2 40.8461 132.027 40.7888 131.851 40.7413C131.513 40.6377 131.181 40.5159 130.857 40.3765C130.835 40.3765 130.835 40.3551 130.814 40.3551C130.209 40.0976 127.291 38.746 127.291 36.1715V35.8496C127.289 35.7076 127.257 35.5675 127.197 35.4383C127.138 35.3091 127.052 35.1934 126.945 35.0987C126.924 35.0987 126.924 35.0773 126.902 35.0773H126.881C126.859 35.0558 126.837 35.0558 126.816 35.0344H126.772C126.751 35.0344 126.751 35.0129 126.729 35.0129C126.619 34.969 126.502 34.9471 126.383 34.9486H124.395C123.95 34.9672 123.531 35.1601 123.228 35.4849C123.096 35.6198 122.993 35.7805 122.926 35.9569C122.493 37.0511 121.975 38.3598 121.435 39.7544C119.533 44.6031 117.264 50.4172 116.615 52.0692L116.551 52.2623C116.032 53.5282 114.93 55.0514 112.574 55.0514C111.558 55.0514 110.716 54.6652 110.283 54.0216C110.008 53.5862 109.88 53.0754 109.916 52.5627C109.948 52.0627 110.057 51.5706 110.24 51.1038C110.651 50.0311 111.537 47.7998 112.466 45.4398C113.352 43.1871 114.281 40.7842 114.93 39.1536C115.146 38.5958 114.843 38.1453 114.238 38.1453H112.034C111.887 38.1472 111.742 38.1688 111.602 38.2096H111.558C111.078 38.349 110.65 38.6249 110.327 39.0035C109.266 40.251 107.956 41.2664 106.48 41.9856C105.051 42.7014 103.508 43.1659 101.92 43.3587C101.7 42.7862 101.417 42.2394 101.077 41.7282C101.056 41.7067 101.056 41.6853 101.034 41.6638C100.823 41.3425 100.592 41.0344 100.342 40.7413C98.5487 38.6816 95.977 37.5446 93.0595 37.5446C91.5124 37.5555 89.9835 37.8766 88.5644 38.4885C89.2776 36.6649 89.9908 34.8198 90.6607 33.082C91.4819 30.958 92.2599 28.9842 92.8866 27.3537C92.9349 27.2494 92.9599 27.1359 92.9599 27.0211C92.9599 26.9063 92.9349 26.7929 92.8866 26.6886C92.8196 26.5739 92.7209 26.4806 92.6022 26.4198C92.4834 26.359 92.3497 26.3331 92.2167 26.3453H90.1853C89.9264 26.3564 89.6742 26.4301 89.4505 26.5598C89.1757 26.697 88.9495 26.914 88.8022 27.182C88.7805 27.2464 88.7373 27.2893 88.7157 27.3537C86.144 33.8544 82.038 44.3885 80.093 49.4303C79.5527 50.8034 79.1853 51.7903 79.034 52.1551C78.5154 53.4209 77.4132 54.9441 75.0793 54.9441C74.884 54.9421 74.6891 54.9278 74.4958 54.9012C73.761 54.7725 73.1343 54.4507 72.7885 53.9143C72.7237 53.8071 72.6588 53.6998 72.594 53.5711C72.387 53.0833 72.3343 52.5446 72.4427 52.0263C72.5296 51.6229 72.6526 51.2281 72.8101 50.8463C73.0478 50.2027 73.2856 49.5805 73.2856 49.5805C73.2856 49.5805 74.15 47.3922 75.3818 44.2169C75.5115 43.8736 75.6628 43.5089 75.814 43.1227C75.838 43.0836 75.8528 43.0396 75.8572 42.994C77.759 38.1453 80.3091 31.6017 82.146 26.8817C82.8808 24.9722 83.5075 23.3631 83.9397 22.2904C84.1558 21.7326 83.8533 21.282 83.2482 21.282H81.2384C80.9228 21.2966 80.6178 21.3988 80.358 21.5771C80.0981 21.7554 79.894 22.0025 79.7688 22.2904C79.5311 22.8911 77.4132 28.3406 75.036 34.4337C71.9673 42.286 68.4879 51.2111 68.1206 52.1765C68.0341 52.3696 67.9477 52.5627 67.8396 52.7558C67.4936 53.4311 66.9711 54.0017 66.3269 54.4078C65.6636 54.7889 64.9105 54.9888 64.1442 54.9871C63.3229 54.9871 62.6314 54.7511 62.156 54.3005C62.0479 54.1932 61.9398 54.086 61.8318 53.9572C61.4865 53.4073 61.3703 52.7456 61.5076 52.1122V52.0907C61.6157 51.4685 62.4585 49.2802 62.4585 49.2373C62.9988 47.8642 63.6255 46.2336 64.2954 44.4958C66.5214 38.8104 69.2443 31.7733 70.9948 27.3322C71.0373 27.2078 71.0592 27.0774 71.0596 26.946C71.0469 26.7743 70.9698 26.6136 70.8435 26.4955C70.6902 26.3754 70.4983 26.3144 70.3033 26.3239H68.2934C68.0599 26.33 67.8309 26.3887 67.6235 26.4955C67.3235 26.6404 67.0748 26.8724 66.9103 27.1606C66.8887 27.2035 66.8455 27.2678 66.8239 27.3108C66.3052 28.6195 65.7434 30.0784 65.1383 31.6231C64.4899 33.2966 63.7984 35.0773 63.0852 36.858C60.319 43.938 57.5745 51.0394 57.1206 52.1765C56.9603 52.5582 56.765 52.9245 56.5371 53.2707C55.8888 54.1932 54.8515 54.9656 53.1442 54.9656C52.5704 54.9737 52.0043 54.8332 51.5018 54.558C51.2408 54.4023 51.019 54.1895 50.8535 53.9358C50.7456 53.768 50.6585 53.5879 50.5941 53.3994C50.4621 52.9682 50.4399 52.5111 50.5293 52.0692C50.7462 51.2502 51.0206 50.4473 51.3505 49.6663C51.3528 49.6501 51.3604 49.635 51.3721 49.6234L55.4998 39.0678C55.7159 38.51 55.4134 38.0595 54.8083 38.0595H52.7985C52.4061 38.0765 52.0318 38.2281 51.7395 38.4885C51.7338 38.4885 51.7283 38.4908 51.7242 38.4948C51.7202 38.4989 51.7179 38.5043 51.7179 38.51C51.5505 38.654 51.4239 38.8389 51.3505 39.0464L50.9399 40.1191L50.2916 41.7925L49.9026 41.2133C49.7705 41.0253 49.6262 40.8461 49.4704 40.6769C48.8232 39.9285 48.0566 39.2907 47.2012 38.7889C45.6874 37.9117 43.9619 37.4593 42.2091 37.4802C37.6925 37.4802 33.4135 40.3122 31.3173 44.3027C30.7291 45.418 30.3276 46.6209 30.1287 47.8642C29.6748 50.782 30.4312 53.5496 32.2465 55.6307C32.7961 56.2703 33.4367 56.8269 34.1483 57.2827C34.2779 57.3685 34.4292 57.4543 34.5805 57.5401C36.0857 58.398 37.7939 58.8423 39.5294 58.8274C42.4468 58.8274 45.2779 57.626 47.4822 55.7165C47.5535 55.8499 47.6329 55.9789 47.7199 56.1027C47.7631 56.1671 47.828 56.2529 47.8712 56.3172C47.8712 56.3387 47.8928 56.3387 47.8928 56.3601C47.936 56.4245 48.0008 56.4889 48.0441 56.5532C48.0863 56.5906 48.1227 56.634 48.1521 56.682C48.1737 56.7249 48.2169 56.7463 48.2602 56.7892C48.3237 56.8481 48.3816 56.9128 48.4331 56.9823L48.4979 57.0467C48.5843 57.1111 48.6492 57.1969 48.7356 57.2612L48.7572 57.2827C49.5504 57.9486 50.4908 58.4191 51.5018 58.6558C51.5234 58.6558 51.545 58.6772 51.5666 58.6772L51.8908 58.7416C51.934 58.7416 51.9772 58.7631 52.0421 58.7631C52.1069 58.7631 52.215 58.7845 52.323 58.806C52.4311 58.8274 52.4743 58.8274 52.5607 58.8274C52.6472 58.8274 52.6904 58.8489 52.7768 58.8489C52.9281 58.8489 53.0794 58.8703 53.2523 58.8703C54.3354 58.8755 55.4085 58.6639 56.4075 58.2481C56.7703 58.1039 57.1178 57.9242 57.4448 57.7118C57.5577 57.6478 57.666 57.5761 57.769 57.4972C58.206 57.203 58.6115 56.8651 58.9792 56.4889C59.1118 56.6562 59.2562 56.8139 59.4114 56.9609C60.4543 57.9879 61.8189 58.6311 63.2797 58.7845C63.3229 58.7845 63.3878 58.806 63.431 58.806H63.5607C63.6471 58.806 63.7336 58.8274 63.82 58.8274H64.209C65.2701 58.843 66.3233 58.6437 67.3043 58.2416C68.2852 57.8395 69.1733 57.2431 69.9143 56.4889C70.4865 57.1815 71.2012 57.7447 72.0105 58.1409C72.9816 58.602 74.046 58.8368 75.1225 58.8274C75.6887 58.8256 76.2533 58.7681 76.8081 58.6558C79.1637 58.1838 81.1087 56.7034 82.2973 54.4721C82.3621 54.5794 82.4269 54.6652 82.4918 54.7725L82.7511 55.1587C82.8808 55.3303 83.0104 55.4805 83.1401 55.6521C84.9338 57.7118 87.5055 58.8489 90.423 58.8489C94.3994 58.8489 98.2029 56.6391 100.472 53.4209C101.517 51.9503 102.212 50.2629 102.503 48.4863C102.568 48.0358 102.612 47.5853 102.633 47.1347C103.018 47.093 103.401 47.0286 103.778 46.9416C105.383 46.6405 106.934 46.1055 108.382 45.354C108.338 45.4613 108.295 45.59 108.252 45.6973C107.604 47.3922 107.02 48.8511 106.718 49.6449C105.767 52.0263 105.918 54.3434 107.15 56.1456C107.601 56.8048 108.182 57.3667 108.857 57.7976C109.995 58.5107 111.315 58.8832 112.661 58.8703C116.097 58.8703 118.928 56.918 120.268 53.614C120.44 53.1849 120.786 52.2838 121.24 51.1038C122.191 48.6794 123.617 45.0322 124.914 41.7282C125.022 41.4278 125.152 41.1275 125.26 40.8485C126.359 42.1854 127.768 43.2381 129.366 43.9165C129.452 43.9594 129.517 43.9809 129.603 44.0238C129.776 44.0882 129.949 44.1525 130.101 44.2169C129.366 46.1907 128.199 49.3231 128.047 49.6663C127.464 51.1467 127.291 52.5842 127.55 53.8929C127.705 54.7048 128.021 55.478 128.48 56.1671C129.049 56.9873 129.806 57.6619 130.689 58.1355C131.572 58.6092 132.555 58.8683 133.558 58.8918C133.71 58.8918 133.839 58.9132 133.99 58.9132C134.228 58.9132 134.466 58.8918 134.704 58.8703C134.755 58.8738 134.807 58.8665 134.855 58.8489H134.92C135.905 58.7345 136.863 58.4514 137.751 58.0121C138.651 57.5648 139.47 56.9701 140.171 56.2529C141.56 57.5932 143.335 58.4705 145.25 58.7631C145.807 58.8502 146.371 58.8932 146.935 58.8918C149.709 58.8774 152.388 57.8894 154.499 56.1027C154.646 55.9926 154.783 55.8706 154.91 55.738C154.996 55.8881 155.083 56.0383 155.169 56.1671C155.929 57.2555 157.019 58.0748 158.281 58.5056C158.34 58.5235 158.398 58.545 158.454 58.57C158.519 58.5914 158.605 58.6129 158.67 58.6343L158.908 58.6987C158.973 58.7201 159.037 58.7201 159.102 58.7416C159.179 58.7662 159.259 58.7807 159.34 58.7845C159.405 58.806 159.47 58.806 159.535 58.8274C159.612 58.8452 159.692 58.8524 159.772 58.8489C159.859 58.8489 159.945 58.8703 160.032 58.8703C160.118 58.8703 160.161 58.8918 160.226 58.8918C160.377 58.8918 160.529 58.9132 160.702 58.9132C164.138 58.9132 166.969 56.9609 168.309 53.6569C168.373 53.4638 169.627 50.3529 170.643 47.7783C170.945 47.006 171.226 46.2765 171.442 45.6973C171.55 45.9333 171.68 46.1907 171.788 46.4267C172.198 47.242 172.631 48.0787 173.085 48.9369C173.452 49.6234 173.841 50.3314 174.187 51.0394C175.246 53.142 176.132 55.2874 176.132 57.39C176.132 63.5903 171.896 64.6845 170.599 64.8776C170.188 64.9366 169.807 65.1247 169.512 65.4142C169.216 65.7037 169.022 66.0795 168.957 66.4867C168.924 66.6784 168.924 66.8742 168.957 67.0659C168.958 67.1256 168.973 67.1842 169 67.2376C169.104 67.6563 169.345 68.0288 169.685 68.2968C170.026 68.5647 170.446 68.7129 170.88 68.7179H171.183C172.263 68.5544 173.313 68.2289 174.295 67.7525C177.299 66.079 180 62.8179 180 57.2612ZM155.104 47.8427C154.904 49.0841 154.433 50.267 153.724 51.3084C153.014 52.3499 152.084 53.2247 150.998 53.8714C150.974 53.894 150.944 53.909 150.912 53.9143C150.906 53.9143 150.901 53.9166 150.896 53.9206C150.892 53.9246 150.89 53.9301 150.89 53.9358C149.776 54.5869 148.509 54.9347 147.216 54.9441C146.63 54.9475 146.047 54.8607 145.487 54.6867C144.544 54.3993 143.703 53.8481 143.067 53.0991C142.434 52.3224 142.03 51.3867 141.9 50.3958V50.3743C141.81 49.7332 141.817 49.0824 141.922 48.4434C142.069 47.4619 142.398 46.516 142.894 45.6544C143.539 44.5087 144.432 43.5194 145.509 42.758C146.764 41.8623 148.264 41.3683 149.81 41.342C150.786 41.3235 151.75 41.5681 152.597 42.05C153.112 42.3507 153.572 42.7351 153.959 43.1871C154.151 43.4112 154.318 43.6558 154.456 43.9165C154.956 44.8154 155.209 45.8291 155.191 46.8558C155.193 47.1867 155.164 47.5172 155.104 47.8427ZM88.6509 54.7511C87.6117 54.4938 86.6857 53.9061 86.0144 53.0776C84.9986 51.8547 84.588 50.2027 84.8474 48.422V48.4005C84.9055 48.0067 84.9995 47.6189 85.1283 47.242C85.2796 46.8558 85.4309 46.4482 85.6037 46.0405C85.6254 45.9762 85.6686 45.9333 85.6902 45.8689C85.755 45.7616 85.7982 45.6544 85.8631 45.5471C85.8847 45.5042 85.9063 45.4827 85.9279 45.4398C86.3949 44.657 86.9777 43.9482 87.6568 43.3373C89.0831 42.0929 90.8768 41.3205 92.7353 41.3205C93.5377 41.3172 94.3322 41.4779 95.0693 41.7925C95.7735 42.1043 96.395 42.5744 96.8846 43.1656C97.9003 44.3885 98.3109 46.0405 98.0516 47.8427C97.4681 51.7474 93.9239 54.9441 90.142 54.9441C89.6385 54.9461 89.137 54.8812 88.6509 54.7511ZM39.7455 54.9441C38.0382 54.9441 36.5687 54.2791 35.5746 53.0991C35.4739 52.9755 35.3801 52.8466 35.2937 52.7129C34.4724 51.5329 34.1699 50.0311 34.4076 48.422C34.9911 44.5173 38.5569 41.3205 42.3604 41.3205C44.0677 41.3205 45.5372 41.9856 46.5313 43.1656C47.547 44.3885 47.9792 46.0405 47.6983 47.8427C47.6542 48.1471 47.5892 48.4482 47.5038 48.7438C46.5529 52.2194 43.2465 54.9441 39.7455 54.9441Z" fill="black"/>
</svg>
