<svg width="210" height="90" viewBox="0 0 210 90" fill="none" xmlns="http://www.w3.org/2000/svg">
<path fill-rule="evenodd" clip-rule="evenodd" d="M158.5 30.9754V25.0325H146.848V25H138.702V65H158.5V59.0592H146.848V47.5069H158.5V41.5661H146.848V30.9754H158.5ZM115.015 25H106.868V65H125.256V59.0592H115.015V25ZM127.462 65H135.609V25H127.462V65ZM76.8798 25.0325L76.896 25H68.4471L59.647 43.1082V25H51.5V65H59.647V43.7341L68.4811 65H76.93L67.9788 43.4525L76.93 25.0325H76.8798ZM91.2709 39.1448L85.9488 25.0325H77.6509L87.1896 49.9239H87.2054V65H95.3522V49.9239L104.891 25.0325H96.5929L91.2709 39.1448Z" fill="black"/>
</svg>
