<svg width="190" height="82" viewBox="0 0 190 82" fill="none" xmlns="http://www.w3.org/2000/svg">
<path d="M76.5485 13.2426C76.8095 15.1985 77.0705 17.1673 77.3222 19.1232C77.3595 19.4063 77.3409 19.6765 77.1824 19.8952C77.1078 20.011 76.9959 20.114 77.1171 20.2941C77.1333 20.3189 77.1522 20.3402 77.173 20.3572C77.1592 20.3426 77.1467 20.3257 77.1358 20.307C77.0145 20.1269 77.1264 20.0239 77.201 19.9081C77.3595 19.6894 77.3782 19.4192 77.3409 19.1361C77.0799 17.1801 76.8188 15.2114 76.5671 13.2555L76.4832 12.5992C76.4695 12.5436 76.4693 12.4833 76.4828 12.4274C76.4963 12.3717 76.5226 12.3236 76.5578 12.2904C76.5886 12.2575 76.6257 12.2379 76.6645 12.234C76.7033 12.2301 76.742 12.2421 76.7759 12.2686C76.7418 12.2319 76.6995 12.2128 76.6563 12.2145C76.6132 12.2161 76.5717 12.2384 76.5392 12.2775C76.5028 12.3093 76.4756 12.3573 76.462 12.4136C76.4484 12.4699 76.4493 12.5309 76.4645 12.5864L76.5485 13.2426Z" fill="black"/>
<path d="M74.9611 19.5407C75.0492 19.5029 75.158 19.4858 75.2663 19.4926C75.3747 19.4994 75.4748 19.5295 75.5476 19.5773C75.5163 19.5459 75.4738 19.5189 75.4231 19.498C75.3725 19.4771 75.3148 19.463 75.254 19.4565C75.1932 19.45 75.1306 19.4513 75.0708 19.4603C75.0109 19.4694 74.955 19.4859 74.907 19.5088C74.5286 19.6363 74.6367 19.8116 74.7448 20.0188C75.0422 20.4332 75.3395 20.8317 75.3395 21.262C75.3395 20.8317 75.0422 20.4332 74.7989 20.0507C74.6907 19.8594 74.5556 19.6842 74.9611 19.5407Z" fill="black"/>
<path d="M64.8873 28.0073C66.3331 28.7473 67.7666 29.4872 69.2001 30.2563C69.3962 30.3578 69.4942 30.3143 69.6044 30.1256C69.9232 29.5889 70.1021 28.9533 70.1191 28.2976C70.104 28.9493 69.9248 29.5809 69.6044 30.1112C69.4942 30.2998 69.3962 30.3433 69.2001 30.2417C67.7666 29.4872 66.3331 28.7329 64.8873 27.9928C64.7071 27.9 64.6827 27.7926 64.7084 27.5953C64.6949 27.6361 64.689 27.6798 64.6909 27.7236C64.6928 27.7674 64.7024 27.8102 64.7194 27.8491C64.7363 27.8881 64.76 27.9224 64.7889 27.9496C64.8179 27.9769 64.8515 27.9966 64.8873 28.0073Z" fill="black"/>
<path d="M73.9264 22.9749C74.4278 22.5123 74.9292 22.0374 75.4307 21.5626C75.4924 21.4679 75.532 21.3663 75.5476 21.262C75.5339 21.3625 75.4818 21.4582 75.3972 21.5383C74.9125 22.0131 74.4111 22.4878 73.893 22.9504C73.7593 23.0844 73.5922 23.0722 73.4083 22.9626L72.8334 22.6328C73.0373 22.7545 73.2395 22.8677 73.4417 22.987C73.6439 23.1063 73.7927 23.0966 73.9264 22.9749Z" fill="black"/>
<path d="M78.2619 16.6676C78.2783 16.7368 78.3059 16.7708 78.3692 16.6956C78.6227 16.4163 78.8835 16.137 79.1667 15.8334H79.1614C78.8805 16.1345 78.6211 16.4126 78.3692 16.6834C78.3096 16.7538 78.2783 16.7319 78.2619 16.6676Z" fill="black"/>
<path d="M68.8996 32.9607C68.6899 32.8625 68.7714 32.666 68.8414 32.4837C68.9929 32.0909 68.888 31.8243 68.5617 31.656C67.1981 30.9263 65.8229 30.2109 64.4593 29.4814C64.1447 29.313 63.9349 29.4253 63.7951 29.79L63.7857 29.8124C63.9256 29.4519 64.1353 29.3425 64.4477 29.5094C65.8112 30.2389 67.1748 30.9545 68.55 31.684C68.8647 31.8524 68.9696 32.1189 68.8297 32.5118C68.7598 32.68 68.6899 32.8765 68.888 32.9888C69.0861 33.1009 69.1525 32.9228 69.2143 32.7559C69.1525 32.9129 69.0756 33.0547 68.8996 32.9607Z" fill="black"/>
<path d="M67.5853 20.8541C68.5423 19.5823 69.4993 18.3105 70.4301 17.0248C70.6661 16.7068 70.8628 16.6792 71.1381 16.9557C71.3741 17.1906 71.6363 17.3842 71.8853 17.5915C71.9006 17.6038 71.9151 17.6172 71.9286 17.6317C71.907 17.6074 71.8838 17.5848 71.8591 17.5639C71.61 17.3566 71.3478 17.163 71.1119 16.928C70.8365 16.6515 70.6398 16.6792 70.4039 16.9971C69.46 18.2828 68.503 19.5408 67.559 20.8265C67.4621 20.9648 67.3336 21.103 67.4529 21.262C67.3585 21.1168 67.4817 20.9758 67.5853 20.8541Z" fill="black"/>
<path d="M72.008 18.7504C72.153 18.4944 72.2867 18.5968 72.4205 18.7504L73.7247 20.3384L73.7381 20.3572C73.727 20.3384 73.7147 20.3214 73.7025 20.3043L72.3982 18.7163C72.2644 18.5456 72.1306 18.4431 71.9858 18.7163C71.8932 18.8871 71.9278 18.9964 71.9858 19.08C71.9434 19.0015 71.9278 18.9024 72.008 18.7504Z" fill="black"/>
<path d="M69.268 20.1751C69.7423 20.5078 70.2166 20.8519 70.6785 21.196C70.8158 21.2992 70.8907 21.2764 70.9905 21.1616C71.2526 20.8404 71.5148 20.5307 71.777 20.221C72.0141 19.9342 71.9641 19.6819 71.6896 19.4524H71.682C71.9392 19.6888 71.9829 19.9354 71.752 20.2038C71.4899 20.525 71.2277 20.8347 70.9656 21.1444C70.8657 21.2592 70.7909 21.2821 70.6535 21.1788C70.1916 20.8347 69.7174 20.4906 69.243 20.1579C69.2329 20.1505 69.2233 20.1424 69.2143 20.1338C69.231 20.1489 69.2489 20.1628 69.268 20.1751Z" fill="black"/>
<path d="M94.5413 12.6448C94.506 11.9921 94.4816 11.3393 94.4816 10.6865C94.4816 10.4467 94.3857 10.3934 94.1939 10.4067C93.4873 10.4467 92.7797 10.4866 92.0731 10.5C91.9365 10.5 91.8623 10.5346 91.8334 10.6332C91.8695 10.5613 91.941 10.532 92.0614 10.524C92.768 10.4973 93.4755 10.4707 94.1821 10.4307C94.3739 10.4174 94.4698 10.4707 94.4698 10.7105C94.4698 11.3633 94.4934 12.016 94.5295 12.6688C94.5495 12.827 94.5151 12.9877 94.4336 13.1191C94.525 12.9831 94.5639 12.8126 94.5413 12.6448Z" fill="black"/>
<path d="M84.8754 15.6611C84.8159 15.4758 84.9348 15.4096 85.0655 15.3303C85.5646 15.0523 85.5766 15.0258 85.3864 14.4302C84.8991 12.8685 84.3881 11.3067 83.9009 9.74491C83.8462 9.57952 83.782 9.50143 83.6905 9.50008C83.7773 9.51066 83.8379 9.5901 83.889 9.74491C84.3762 11.3067 84.8872 12.8685 85.3745 14.4302C85.5646 15.0258 85.5528 15.0523 85.0536 15.3303C84.9229 15.4096 84.8041 15.4758 84.8634 15.6611C84.9229 15.8464 85.0488 15.857 85.1796 15.8093C85.0453 15.8464 84.9277 15.8371 84.8754 15.6611Z" fill="black"/>
<path d="M96.9389 6.99964C96.6177 7.11891 96.444 7.26696 96.3572 7.69056C96.4476 7.32865 96.6177 7.19294 96.929 7.0819C97.0502 7.049 97.2049 7.11069 97.2619 6.78579C97.1923 7.04077 97.052 6.97085 96.9389 6.99964Z" fill="black"/>
<path d="M89.5237 7.1449C89.6389 7.15811 89.7541 7.15811 89.8693 7.17131C90.311 7.18451 90.5606 7.32975 90.5798 7.64661C90.6758 9.34975 90.7911 11.0661 90.9062 12.7693C90.918 12.8892 90.887 13.0093 90.816 13.1191C90.9024 13.003 90.9404 12.8728 90.9254 12.7428C90.8102 11.0397 90.7143 9.32335 90.599 7.6202C90.5798 7.30334 90.3302 7.15811 89.8885 7.1449C89.7724 7.14265 89.6569 7.13382 89.5429 7.1185C89.3124 7.09209 89.1204 7.03929 89.1396 6.84125C89.1419 6.82255 89.1464 6.804 89.153 6.78579C89.1354 6.81159 89.1243 6.83928 89.1204 6.86765C89.1012 7.05249 89.2932 7.1185 89.5237 7.1449Z" fill="black"/>
<path d="M63.0386 30.2696C63.2977 30.3823 63.4043 30.2355 63.4901 30.0913C63.4058 30.2224 63.2977 30.3535 63.0545 30.2433C62.8112 30.1332 62.9114 29.9419 62.9909 29.7845C63.5156 28.8275 64.0243 27.8573 64.5649 26.9003C64.6046 26.8295 64.646 26.76 64.6905 26.6905C64.6396 26.7692 64.5935 26.8465 64.549 26.9265C64.0084 27.8836 63.4996 28.8537 62.975 29.8107C62.8955 29.968 62.7843 30.1516 63.0386 30.2696Z" fill="black"/>
<path d="M94.5431 9.30318C94.5214 8.7596 94.4888 8.21601 94.4888 7.68451C94.4888 7.29797 94.326 7.12885 93.9903 7.1047C93.8383 7.09262 93.6429 7.12885 93.6537 6.86311C93.6546 6.83685 93.6592 6.81083 93.6664 6.78579C93.6528 6.81755 93.6447 6.85207 93.6429 6.88726C93.632 7.14093 93.8274 7.11677 93.9795 7.12885C94.3151 7.14093 94.478 7.32213 94.478 7.70868C94.478 8.25226 94.5105 8.79584 94.5323 9.32734C94.5395 9.38545 94.5341 9.44461 94.5169 9.50008C94.5449 9.43935 94.554 9.37022 94.5431 9.30318Z" fill="black"/>
<path d="M80.7162 17.5467C80.6253 17.3995 80.696 17.3059 80.7767 17.2123C81.0491 16.8378 81.0491 16.7575 80.7364 16.4633C80.5204 16.2547 80.3045 15.9551 80.0714 15.8334C80.2924 15.9671 80.5073 16.248 80.7162 16.4499C81.029 16.7575 81.029 16.8378 80.7565 17.1989C80.6859 17.3059 80.6052 17.3862 80.696 17.5333C80.7227 17.5798 80.7573 17.6173 80.7969 17.6429C80.7658 17.6175 80.7384 17.5849 80.7162 17.5467Z" fill="black"/>
<path d="M77.3572 14.0239C77.9893 14.3462 78.5772 14.6362 79.1667 14.9286C78.5851 14.634 78.0052 14.3439 77.3572 14.0239Z" fill="black"/>
<path d="M87.1812 9.30696C86.9482 8.84014 86.6917 8.60596 86.4048 8.59532C86.6848 8.61053 86.9404 8.84622 87.1715 9.30696C87.2097 9.38907 87.242 9.49856 87.3095 9.50008C87.2488 9.48944 87.2175 9.38603 87.1812 9.30696Z" fill="black"/>
<path d="M82.2528 11.0573C82.2923 11.2059 82.3569 11.3158 82.486 11.3093C82.3569 11.3093 82.3021 11.1917 82.2671 11.0573C82.1576 10.6694 82.0372 10.2815 81.9168 9.90659C81.8511 9.69967 81.9059 9.58332 82.081 9.50578C83.4821 8.91103 84.8942 8.31631 86.2953 7.72159C86.3303 7.70491 86.3672 7.69446 86.4048 7.69056C86.362 7.69216 86.3197 7.70266 86.28 7.72159C84.8789 8.31631 83.4668 8.91103 82.0657 9.50578C81.9015 9.57038 81.8468 9.69967 81.9015 9.90659C82.023 10.2945 82.1325 10.6694 82.2528 11.0573Z" fill="black"/>
<path d="M87.0519 66.6776C85.7682 66.0568 84.4969 65.4233 83.2132 64.8025C83.0811 64.7353 82.9091 64.6187 82.7857 64.7505C82.9104 64.6403 83.0624 64.7505 83.2008 64.8152C84.4845 65.4359 85.7557 66.0694 87.0395 66.6903C87.3011 66.817 87.3759 66.969 87.2264 67.2351C87.0519 67.5519 86.9148 67.8813 86.7528 68.2107C86.7371 68.247 86.7156 68.2804 86.6892 68.3095C86.7216 68.2779 86.7474 68.24 86.7652 68.1981C86.9273 67.8686 87.0644 67.5392 87.2389 67.2225C87.376 66.9564 87.3136 66.8044 87.0519 66.6776Z" fill="black"/>
<path d="M73.7381 66.5C73.9159 66.7795 74.1785 67.0115 74.4974 67.1709C74.8164 67.3303 75.1796 67.411 75.5476 67.4044C75.1802 67.4081 74.8183 67.3261 74.5 67.167C74.1816 67.0079 73.9185 66.7775 73.7381 66.5Z" fill="black"/>
<path d="M82.0025 70.6386C81.7596 71.0072 81.8962 71.2441 82.2757 71.4415C82.4579 71.5336 82.7311 71.6126 82.5641 71.8628C82.5485 71.8866 82.5296 71.9087 82.508 71.9286C82.5362 71.9056 82.5603 71.8789 82.5793 71.8496C82.7311 71.6126 82.4579 71.5336 82.2909 71.4283C81.9114 71.2309 81.79 70.994 82.0177 70.6254C82.2453 70.2569 82.4123 69.9015 82.6097 69.5329C82.6749 69.4117 82.7326 69.3078 82.7857 69.2143C82.7295 69.3104 82.6659 69.4197 82.5945 69.546C82.3971 69.9146 82.2301 70.2832 82.0025 70.6386Z" fill="black"/>
<path d="M86.2563 68.3615C86.4727 68.4766 86.3964 68.6125 86.3072 68.7485C86.0526 69.1775 85.8107 69.6169 85.5433 70.0459C85.5293 70.0699 85.5153 70.095 85.5 70.1191C85.5191 70.0918 85.5382 70.0636 85.556 70.0354C85.8107 69.6064 86.0653 69.1671 86.32 68.7381C86.3964 68.602 86.4855 68.4661 86.2691 68.351C86.1557 68.2924 86.0844 68.3028 86.0309 68.3395C86.0844 68.3092 86.1544 68.3092 86.2563 68.3615Z" fill="black"/>
<path d="M80.0714 64.6905C80.0558 66.5933 78.256 68.3094 76.2736 68.297C75.4208 68.3072 74.5948 68.0146 73.9582 67.4769C73.3216 66.9392 72.9203 66.1953 72.8334 65.3915C72.9216 66.1959 73.3227 66.9404 73.9588 67.4798C74.5947 68.0193 75.42 68.3151 76.2736 68.3094C78.2574 68.3218 80.0584 66.6032 80.0714 64.6992V64.6905Z" fill="black"/>
<path d="M73.7738 65.2337C74.103 63.8397 75.0221 62.7765 76.5313 62.1385C77.1624 61.8668 77.7935 61.9613 78.3423 62.3275C78.854 62.6548 79.1888 63.1072 79.1654 63.6212C79.1901 63.0955 78.8526 62.6465 78.3423 62.3216C77.7935 61.9554 77.1624 61.8609 76.5313 62.1326C75.0221 62.7706 74.103 63.8338 73.7738 65.2278C73.7454 65.3487 73.734 65.472 73.7395 65.5952C73.7341 65.474 73.7457 65.3527 73.7738 65.2337Z" fill="black"/>
<path d="M84.6011 66.6564C84.3262 67.2443 84.0375 67.8189 83.7489 68.3801C83.6526 68.5538 83.6663 68.6474 83.8588 68.7275C84.131 68.8387 84.3971 68.9636 84.6561 69.1017C85.0066 69.2901 85.2718 69.2353 85.5 68.9881C85.2718 69.2273 85.0024 69.2727 84.6752 69.0884C84.4141 68.9547 84.1529 68.8344 83.8781 68.7141C83.6856 68.634 83.6719 68.5404 83.768 68.3667C84.0705 67.7922 84.3454 67.2176 84.6203 66.643C84.6427 66.5878 84.6785 66.5387 84.7247 66.5C84.6692 66.5397 84.6263 66.5939 84.6011 66.6564Z" fill="black"/>
<path d="M89.12 67.4048C89.0927 68.4136 89.7003 68.1467 90.0238 68.3095C89.7102 68.1014 89.1027 68.4045 89.12 67.4048Z" fill="black"/>
<path d="M89.4246 74.3784C89.26 74.3784 89.1191 74.4201 89.1191 74.6429C89.1308 74.434 89.26 74.3923 89.4246 74.3784Z" fill="black"/>
<path d="M91.4877 74.439C91.0019 74.3352 90.9099 74.2183 90.9358 73.7381C90.8968 74.2183 91.0019 74.3482 91.4877 74.439Z" fill="black"/>
<path d="M71.5128 55.6433C70.1122 55.6129 68.134 56.9813 67.5853 58.3345C67.4666 58.6277 67.4051 58.9432 67.4048 59.2619C67.4086 58.9529 67.4699 58.6476 67.5853 58.3634C68.134 57.0102 70.1267 55.6571 71.5128 55.6723C72.7488 55.7012 73.7827 56.9129 73.7351 58.184C73.8015 56.9038 72.759 55.6723 71.5128 55.6433Z" fill="black"/>
<path d="M67.0162 60.3374C66.5968 59.6781 66.4291 59.0189 66.5283 58.3572C66.427 59.0555 66.5993 59.7634 67.0162 60.3622C67.6871 61.4051 68.7074 61.9762 70.1191 61.9762C68.7214 61.9762 67.701 61.3927 67.0162 60.3374Z" fill="black"/>
<path d="M73.2373 60.0395C73.6632 59.5523 74.0785 59.0651 74.5044 58.5779C74.5545 58.5186 74.644 58.4668 74.6429 58.3572C74.6311 58.4455 74.5576 58.4927 74.5044 58.5474C74.0892 59.0346 73.6632 59.5219 73.2373 60.009C73.1308 60.1308 73.0243 60.2069 72.8966 60.0395C72.879 60.02 72.8644 59.9957 72.8535 59.968C72.8428 59.9402 72.836 59.9096 72.8337 59.8781C72.8319 59.9151 72.8367 59.9521 72.8477 59.9856C72.8587 60.0192 72.8755 60.0483 72.8966 60.0699C73.0243 60.2373 73.1308 60.1613 73.2373 60.0395Z" fill="black"/>
<path d="M74.6429 61.9762C73.5946 62.4726 72.8334 63.529 72.8334 64.6905C72.8334 63.5381 73.5979 62.4796 74.6429 61.9762Z" fill="black"/>
<path d="M78.2619 16.7382C78.2557 16.7236 78.2511 16.7088 78.248 16.6939C77.9696 15.8566 77.6912 15.0035 77.3572 14.0239C77.6912 15.0035 77.9418 15.8566 78.248 16.7098C78.2513 16.7194 78.256 16.7289 78.2619 16.7382Z" fill="black"/>
<path d="M124.523 44.7858C124.37 44.9507 124.365 45.1332 124.51 45.2995C124.654 45.4658 124.939 45.6047 125.31 45.6905C124.944 45.6025 124.664 45.4634 124.521 45.2979C124.377 45.1324 124.378 44.9511 124.523 44.7858Z" fill="black"/>
<path d="M125.418 46.595C124.483 46.583 123.808 46.0281 123.56 45.0632C123.808 46.0402 124.483 46.583 125.418 46.595Z" fill="black"/>
<path d="M125.31 37.5477C125.106 37.5882 124.914 37.6934 124.756 37.8524C124.597 38.0114 124.475 38.2185 124.405 38.4524C124.578 37.9855 124.844 37.6631 125.31 37.5477Z" fill="black"/>
<path d="M126.785 27.9545C127.149 28.6053 127.527 29.2683 127.892 29.9191C127.941 30.0088 127.975 30.1039 127.993 30.2015C127.998 30.2391 127.989 30.277 127.966 30.3096C127.987 30.2904 128.003 30.2675 128.013 30.2424C128.023 30.2174 128.026 30.1909 128.022 30.1647C128.004 30.067 127.97 29.972 127.921 29.8823C127.556 29.2315 127.192 28.5685 126.814 27.9177C126.726 27.7581 126.654 27.5124 126.348 27.623C126.293 27.6419 126.247 27.6744 126.214 27.7163C126.245 27.6922 126.28 27.6731 126.319 27.6598C126.611 27.5493 126.683 27.7949 126.785 27.9545Z" fill="black"/>
<path d="M120.384 29.9137C120.812 30.3887 120.841 30.3887 121.505 30.1626C122.109 29.959 122.699 29.7215 123.304 29.5179C123.41 29.4829 123.477 29.4478 123.5 29.4048C123.455 29.4434 123.398 29.4726 123.334 29.4897C122.729 29.6933 122.139 29.9194 121.534 30.1343C120.871 30.3605 120.841 30.3605 120.413 29.8855C120.295 29.7611 120.178 29.7046 120 29.7724C119.949 29.7898 119.907 29.8201 119.881 29.8584C119.904 29.8356 119.936 29.8177 119.971 29.8064C120.148 29.7328 120.265 29.7893 120.384 29.9137Z" fill="black"/>
<path d="M122.663 27.0262C123.03 27.7306 123.368 28.4489 123.693 29.1673C123.791 29.3883 123.89 29.4711 124.143 29.3468C124.708 29.0568 125.272 28.7943 125.851 28.5457C126.003 28.4921 126.13 28.3892 126.214 28.2542C126.128 28.3669 126.013 28.4535 125.879 28.5042C125.3 28.7528 124.722 29.0153 124.172 29.3054C123.918 29.4297 123.833 29.3468 123.721 29.1259C123.396 28.4075 123.058 27.6892 122.691 26.9848C122.621 26.8466 122.606 26.7582 122.639 26.6905C122.576 26.7637 122.578 26.8604 122.663 27.0262Z" fill="black"/>
<path d="M118.155 26.252C118.318 26.194 118.426 26.252 118.535 26.3485C118.928 26.754 118.942 26.7636 119.553 26.5609C121.033 26.0685 122.499 25.5761 123.98 25.0741C124.139 25.0317 124.284 24.9659 124.405 24.881C124.284 24.9492 124.15 25.0045 124.007 25.0451C122.54 25.5472 121.06 26.0396 119.58 26.5319C118.969 26.7347 118.955 26.725 118.562 26.3196C118.467 26.2134 118.358 26.1554 118.182 26.223C118.131 26.2385 118.092 26.2673 118.071 26.3031C118.093 26.2818 118.121 26.2643 118.155 26.252Z" fill="black"/>
<path d="M59.275 40.6686C59.2882 20.9964 75.5359 4.97627 95.4524 4.97627C75.5228 4.97627 59.275 20.9964 59.2619 40.6686C59.2502 57.6147 71.2145 71.8567 87.2107 75.5476C71.2145 71.8567 59.2528 57.6147 59.275 40.6686Z" fill="black"/>
<path d="M125.243 56.5476C125.376 56.6956 125.218 56.8108 125.153 56.9189C124.338 58.2498 123.51 59.5808 122.681 60.8969C122.656 60.9567 122.627 61.015 122.595 61.0714C122.632 61.0197 122.661 60.962 122.696 60.9118C123.524 59.5808 124.352 58.2646 125.167 56.9336C125.234 56.8301 125.403 56.697 125.243 56.5476Z" fill="black"/>
<path d="M118.085 56.8075C118.092 55.9216 118.449 55.1782 119.014 54.7381C118.441 55.174 118.08 55.9202 118.071 56.8216C118.059 58.0206 119.351 59.2619 120.616 59.2619C120.992 59.2629 121.362 59.1609 121.69 58.9657C121.366 59.1556 121 59.2528 120.629 59.2478C119.351 59.2478 118.071 58.0065 118.085 56.8075Z" fill="black"/>
<path d="M124.902 23.4169L126.129 26.317C126.159 26.3728 126.177 26.4353 126.182 26.5C126.187 26.5647 126.179 26.6298 126.158 26.6905C126.246 26.5792 126.219 26.4284 126.158 26.2678L124.932 23.3678C124.859 23.1876 124.742 22.9909 124.523 23.1056C124.474 23.1265 124.432 23.1651 124.405 23.2153C124.431 23.1894 124.461 23.1688 124.493 23.1547C124.713 23.0401 124.816 23.2367 124.902 23.4169Z" fill="black"/>
<path d="M89.1191 76.4524C88.511 76.1863 87.9078 75.8846 87.3095 75.5476C87.9087 75.8869 88.5119 76.1885 89.1191 76.4524Z" fill="black"/>
<path d="M58.3572 40.2619V40.2686C58.3572 60.7331 74.5787 77.3571 94.5476 77.3571C74.5813 77.3571 58.3611 60.7238 58.3572 40.2619Z" fill="black"/>
<path d="M131.643 40.2619C131.656 20.3072 115.441 4.09716 95.4524 4.07151C115.441 4.09716 131.656 20.32 131.643 40.2619Z" fill="black"/>
<path d="M125.681 54.0845C125.391 54.1945 125.076 54.32 125.561 54.5241C125.681 54.5713 125.778 54.6341 125.658 54.7125C125.623 54.7297 125.58 54.7386 125.537 54.7377C125.588 54.7403 125.639 54.7314 125.681 54.7125C125.778 54.6341 125.706 54.5713 125.585 54.5241C125.101 54.32 125.415 54.2102 125.706 54.0845C125.827 54.0217 126.093 54.0845 126.214 53.8334C126.093 54.0845 125.827 54.0217 125.681 54.0845Z" fill="black"/>
<path d="M120.337 55.6907C121.15 55.8696 121.878 56.3586 122.387 57.0691C122.474 57.185 122.544 57.3142 122.595 57.4524C122.546 57.3089 122.476 57.1747 122.387 57.0547C121.878 56.3442 121.15 55.8552 120.337 55.6765C119.861 55.5615 119.491 55.7482 119.2 56.1359C119.096 56.2759 119.02 56.4377 118.976 56.6111C119.022 56.4432 119.098 56.2868 119.2 56.1502C119.323 55.9562 119.498 55.8081 119.702 55.7259C119.905 55.6437 120.127 55.6314 120.337 55.6907Z" fill="black"/>
<path d="M125.31 54.7381C125.789 54.7381 126.214 54.3291 126.214 53.8334C126.221 54.3142 125.8 54.7344 125.31 54.7381Z" fill="black"/>
<path d="M126.214 53.8334C126.197 53.599 126.098 53.3786 125.934 53.2125C125.77 53.0464 125.552 52.9456 125.32 52.9286H125.31C125.543 52.9437 125.763 53.0435 125.929 53.2098C126.095 53.376 126.196 53.5975 126.214 53.8334Z" fill="black"/>
<path d="M125.244 52.9421C125.489 52.9386 125.725 53.0289 125.905 53.1944C126.085 53.36 126.195 53.5885 126.214 53.8334C126.195 53.5899 126.087 53.3623 125.909 53.1951C125.733 53.0279 125.5 52.9329 125.258 52.9286C125.09 52.9315 124.925 52.9745 124.777 53.0541C124.628 53.1336 124.501 53.2475 124.405 53.3864C124.502 53.2522 124.627 53.1424 124.773 53.0654C124.919 52.9883 125.08 52.9462 125.244 52.9421Z" fill="black"/>
<path d="M120.786 22.1667C121.371 21.6092 121.956 21.0199 122.528 20.4464C121.943 21.0199 121.371 21.5933 120.786 22.1667Z" fill="black"/>
<path d="M121.69 19.4524C121.274 18.8915 120.636 18.5567 119.881 18.5477C120.636 18.5658 121.274 18.9005 121.69 19.4524Z" fill="black"/>
<path d="M104.904 7.82834C105.583 8.22092 106.249 8.59714 106.928 8.98972C107.095 9.08787 107.248 9.20237 107.165 9.44774C107.157 9.46586 107.15 9.48336 107.141 9.50008C107.163 9.46989 107.18 9.43561 107.192 9.39866C107.275 9.1533 107.108 9.03879 106.956 8.94065C106.277 8.56443 105.611 8.17184 104.932 7.77927C104.792 7.69748 104.626 7.6157 104.515 7.81198C104.515 7.82343 104.505 7.83325 104.5 7.84306C104.611 7.67294 104.771 7.74983 104.904 7.82834Z" fill="black"/>
<path d="M120.942 19.5291C121.298 19.7366 121.543 20.0194 121.64 20.3331C121.736 20.6467 121.678 20.9734 121.474 21.262C121.681 20.974 121.742 20.6466 121.645 20.3322C121.549 20.0178 121.301 19.735 120.942 19.5291Z" fill="black"/>
<path d="M119.373 19.6009C119.373 19.5495 119.373 19.5001 119.373 19.4524C119.369 19.5006 119.369 19.5514 119.373 19.6009Z" fill="black"/>
<path d="M116.481 15.4726C115.305 16.8386 114.113 18.2045 112.952 19.5854C112.53 20.0808 112.545 20.1558 112.967 20.6211C113.118 20.7862 113.299 20.9514 113.088 21.1615C113.066 21.1873 113.04 21.2085 113.009 21.2239C112.979 21.2392 112.947 21.2484 112.913 21.2509C112.88 21.2535 112.846 21.2492 112.814 21.2385C112.782 21.2278 112.752 21.2108 112.727 21.1886C112.752 21.2139 112.783 21.2336 112.817 21.2461C112.85 21.2587 112.885 21.2639 112.922 21.2613C112.957 21.2588 112.992 21.2485 113.023 21.2313C113.055 21.214 113.082 21.1902 113.102 21.1615C113.314 20.9363 113.133 20.7862 112.982 20.6211C112.56 20.1409 112.545 20.0808 112.967 19.5854C114.143 18.2045 115.319 16.8386 116.495 15.4726C116.821 15.0974 116.968 14.9323 117.167 14.9293C116.96 14.9172 116.816 15.0883 116.481 15.4726Z" fill="black"/>
<path d="M108.119 11.3096C108.106 11.329 108.092 11.3475 108.077 11.365C107.499 11.9889 106.899 12.5422 106.31 13.1191C106.899 12.5422 107.499 11.9889 108.051 11.4003C108.077 11.3725 108.1 11.3421 108.119 11.3096Z" fill="black"/>
<path d="M109.024 14.923C109.141 14.9513 109.177 14.8667 109.224 14.8102C109.978 13.9077 110.745 13.0052 111.487 12.0886C111.584 11.9849 111.668 11.8653 111.738 11.7332C111.67 11.8456 111.594 11.9504 111.511 12.0463C110.756 12.9629 110.002 13.8654 109.248 14.768C109.2 14.8243 109.165 14.9089 109.047 14.8808C109.188 13.4705 109.272 12.0604 109.472 10.6643C109.483 10.5751 109.504 10.4879 109.534 10.4048C109.491 10.4984 109.462 10.6006 109.448 10.7066C109.248 12.1027 109.165 13.527 109.024 14.923Z" fill="black"/>
<path d="M108.461 9.54713C109.183 9.76255 109.905 9.97001 110.626 10.1854C110.757 10.2253 110.85 10.2891 110.784 10.3849C110.778 10.3918 110.772 10.3985 110.766 10.4048C110.783 10.3913 110.798 10.3765 110.81 10.361C110.876 10.2652 110.797 10.2014 110.652 10.1615C109.931 9.94603 109.209 9.73061 108.487 9.52315C108.43 9.50189 108.361 9.49496 108.295 9.50388C108.229 9.51284 108.171 9.5369 108.134 9.5711C108.128 9.57599 108.123 9.58142 108.119 9.58703C108.157 9.55509 108.214 9.53319 108.277 9.52577C108.341 9.51845 108.407 9.52604 108.461 9.54713Z" fill="black"/>
<path d="M115.753 13.265C116.455 13.7403 117.141 14.2157 117.843 14.6797C117.901 14.7055 117.952 14.7412 117.992 14.7842C118.032 14.8271 118.059 14.8764 118.071 14.9286C118.059 14.8779 118.033 14.8297 117.996 14.7869C117.959 14.7442 117.912 14.7077 117.857 14.6797L115.768 13.265C115.645 13.1768 115.51 13.0737 115.357 13.1405C115.51 13.0919 115.635 13.1891 115.753 13.265Z" fill="black"/>
<path d="M117.022 20.6016C117.119 20.5342 117.17 20.4469 117.167 20.3572C117.166 20.4464 117.115 20.5327 117.022 20.6016Z" fill="black"/>
<path d="M112.03 11.3695C112.465 11.5456 112.911 11.7215 113.345 11.8975C113.378 11.9064 113.408 11.9208 113.435 11.9399C113.461 11.9589 113.482 11.9822 113.496 12.0083C113.511 12.0343 113.519 12.0626 113.52 12.0914C113.521 12.1202 113.514 12.1488 113.501 12.1755C113.494 12.1888 113.487 12.2019 113.478 12.2144C113.499 12.1953 113.514 12.1725 113.523 12.1477C113.59 12.0179 113.512 11.9346 113.368 11.8697C112.932 11.6938 112.487 11.5178 112.052 11.3417C112.028 11.3277 112 11.318 111.971 11.3131C111.941 11.3083 111.911 11.3084 111.881 11.3135C111.852 11.3186 111.824 11.3286 111.8 11.3428C111.775 11.3571 111.754 11.3753 111.738 11.3964C111.811 11.3223 111.907 11.3214 112.03 11.3695Z" fill="black"/>
<path d="M101.179 20.0696C103.106 21.6042 104.469 23.4714 105.061 25.7862C105.405 27.1418 105.198 28.4847 104.979 29.8275C104.799 30.9274 104.593 32.0144 104.4 33.1015C104.372 33.2934 104.359 33.4852 104.331 33.6899C104.29 34.0095 104.345 34.2398 104.771 34.342C105.24 34.4443 105.433 34.7641 105.364 35.2117C105.185 36.4906 104.414 37.4754 103.45 38.345C103.403 38.3901 103.346 38.4265 103.284 38.4524C103.357 38.4257 103.423 38.3847 103.478 38.3322C104.441 37.4625 105.212 36.4778 105.391 35.1989C105.46 34.7513 105.267 34.4443 104.799 34.3292C104.372 34.2269 104.317 33.9967 104.359 33.677C104.386 33.4852 104.4 33.2805 104.428 33.0887C104.62 32.0017 104.827 30.9018 105.006 29.8148C105.226 28.4719 105.433 27.1291 105.088 25.7735C104.496 23.4586 103.134 21.5915 101.207 20.0568C100.29 19.3426 99.1809 18.8739 97.9993 18.7011C97.0357 18.5604 96.0993 18.5733 95.4524 18.5477C96.0993 18.5733 97.0493 18.5604 97.9713 18.714C99.1538 18.8867 100.262 19.3554 101.179 20.0696Z" fill="black"/>
<path d="M98.5666 74.3372C98.9846 74.2557 99.1239 74.0112 99.0543 73.6172C98.7756 71.9191 98.4969 70.2345 98.2183 68.5364C98.2029 68.459 98.1875 68.3829 98.1667 68.3095C98.1821 68.3707 98.1947 68.4331 98.2047 68.4956C98.4969 70.1938 98.762 71.8783 99.0407 73.5764C99.1104 73.9704 98.971 74.2285 98.553 74.2964C98.3712 74.3236 98.2047 74.3915 98.2599 74.6089C98.2635 74.6205 98.268 74.6318 98.2725 74.6429C98.2237 74.431 98.3884 74.3644 98.5666 74.3372Z" fill="black"/>
<path d="M97.6003 67.713C98.8706 67.3415 100.141 66.97 101.398 66.5767C101.596 66.5134 101.721 66.544 101.786 66.7952C101.728 66.5134 101.597 66.4674 101.388 66.5177C100.117 66.911 98.8588 67.2825 97.5885 67.654C97.4375 67.6977 97.2511 67.7195 97.2628 68.1128C97.2646 68.1803 97.2728 68.2467 97.2854 68.3095C97.2791 68.2669 97.2755 68.2229 97.2737 68.1784C97.2628 67.7785 97.4375 67.7567 97.6003 67.713Z" fill="black"/>
<path d="M94.1133 38.4507C93.9541 38.4542 93.7949 38.4388 93.6429 38.4052C93.8003 38.4424 93.9677 38.4579 94.1351 38.4507C94.7946 38.4365 95.2841 38.1091 95.3692 37.6393C95.399 37.3333 95.4207 37.0173 95.4524 36.6429C95.418 37.0258 95.3945 37.3347 95.3484 37.6393C95.3294 37.8529 95.1927 38.0541 94.9647 38.2041C94.7367 38.354 94.4327 38.4419 94.1133 38.4507Z" fill="black"/>
<path d="M87.562 38.1883C87.4917 38.2974 87.4059 38.3872 87.3095 38.4524C87.4156 38.3872 87.5096 38.2918 87.5849 38.1731C87.759 37.9078 87.9735 37.6946 88.2143 37.5477C87.9617 37.6894 87.738 37.9089 87.562 38.1883Z" fill="black"/>
<path d="M108.874 55.7112C108.776 55.4749 108.612 55.2723 108.4 55.1284C108.19 54.9847 107.941 54.906 107.686 54.9022L104.854 54.7846C104.467 54.7744 104.087 54.6762 103.745 54.4975C101.67 53.4406 99.608 52.3705 97.5325 51.3135C97.432 51.2639 97.2845 51.2483 97.2628 51.1191C97.2619 51.1273 97.2619 51.1356 97.2628 51.1439C97.2628 51.2743 97.432 51.3005 97.5361 51.3527C99.6116 52.4096 101.674 53.4797 103.748 54.5367C104.092 54.7154 104.471 54.8136 104.857 54.8238L107.689 54.9412C107.945 54.9451 108.193 55.0238 108.405 55.1676C108.616 55.3115 108.78 55.514 108.877 55.7504C109.004 55.9955 109.046 56.276 108.996 56.5476C109.058 56.2632 109.015 55.9657 108.874 55.7112Z" fill="black"/>
<path d="M100.338 73.7224C100.914 73.632 101.503 73.5675 102.079 73.464C102.241 73.4287 102.391 73.3571 102.516 73.2558C102.641 73.1544 102.737 73.0262 102.795 72.8827C102.921 72.6373 103.033 72.379 103.146 72.1206C103.156 72.092 103.171 72.0655 103.192 72.0426C103.213 72.0197 103.238 72.001 103.267 71.9877C103.296 71.9744 103.327 71.9667 103.36 71.965C103.393 71.9635 103.424 71.968 103.455 71.9785C103.485 71.9812 103.513 71.991 103.538 72.0068C103.563 72.0227 103.583 72.044 103.595 72.0689C103.588 72.0352 103.57 72.0043 103.542 71.981C103.515 71.9578 103.479 71.9433 103.442 71.9397C103.381 71.9212 103.314 71.9259 103.256 71.9525C103.198 71.9791 103.155 72.0256 103.134 72.0818C103.021 72.3402 102.895 72.5856 102.783 72.844C102.724 72.9875 102.628 73.1156 102.503 73.217C102.378 73.3184 102.228 73.3899 102.066 73.4253C101.491 73.5286 100.915 73.6062 100.325 73.6837C100.141 73.716 100.032 73.6669 99.9762 73.5274C99.9825 73.5639 99.997 73.5987 100.02 73.6293C100.042 73.6597 100.072 73.6853 100.107 73.704C100.142 73.7226 100.181 73.7339 100.22 73.7372C100.26 73.7404 100.301 73.7353 100.338 73.7224Z" fill="black"/>
<path d="M94.1532 42.4025C94.0455 42.8069 93.9378 43.2239 93.8844 43.6283C93.8654 43.7761 93.7741 43.8494 93.6429 43.881C93.8012 43.8507 93.9116 43.7787 93.9378 43.6106C93.9921 43.1936 94.0989 42.7892 94.2065 42.3849C94.2292 42.2636 94.3522 42.1511 94.5476 42.0715C94.4282 42.1065 94.3287 42.1552 94.2599 42.2131C94.1912 42.271 94.1541 42.3362 94.1532 42.4025Z" fill="black"/>
<path d="M99.4243 70.1112C99.8224 70.0587 100.22 70.0412 100.617 69.9887C101.176 69.9187 101.309 69.8136 101.294 69.4722C101.294 69.376 101.22 69.2622 101.471 69.2447C101.536 69.2355 101.605 69.2412 101.663 69.2606C101.721 69.2801 101.765 69.3119 101.786 69.3497C101.779 69.3279 101.766 69.307 101.746 69.2885C101.726 69.2699 101.7 69.254 101.669 69.2417C101.637 69.2294 101.603 69.221 101.567 69.217C101.53 69.2129 101.493 69.2135 101.456 69.2185C101.206 69.2447 101.279 69.3584 101.279 69.446C101.279 69.7874 101.161 69.8924 100.602 69.9624C100.205 70.0149 99.807 70.0325 99.4098 70.0849C99.2234 70.1059 99.1158 70.0849 99.0714 70.0088C99.1158 70.1095 99.2171 70.134 99.4243 70.1112Z" fill="black"/>
<path d="M94.5476 64.6905C108.035 64.6905 119.002 53.7154 118.976 40.2619C119.002 53.7154 108.021 64.6905 94.5476 64.6905Z" fill="black"/>
<path d="M94.9819 34.8617C95.3692 34.9598 95.4244 35.1886 95.4244 35.4173C95.4524 35.8912 95.4524 36.3651 95.4524 36.6429V35.4173C95.4524 35.2049 95.3972 34.9762 95.01 34.8617C94.9367 34.8397 94.8544 34.8302 94.7729 34.8343C94.6915 34.8384 94.6137 34.8557 94.5476 34.8846C94.6119 34.8603 94.6843 34.8454 94.7603 34.8414C94.8354 34.8375 94.9123 34.8444 94.9819 34.8617Z" fill="black"/>
<path d="M95.4524 15.8334C98.6471 15.8325 101.811 16.4715 104.762 17.7138C107.711 18.9559 110.39 20.7767 112.643 23.0715C110.392 20.7745 107.714 18.9521 104.762 17.7098C101.812 16.4675 98.648 15.8297 95.4524 15.8334Z" fill="black"/>
<path d="M82.3603 44.8829C82.5792 44.8334 82.8058 44.8291 83.0264 44.87C83.6797 45.012 83.6797 45.0249 83.9999 44.4828C84.2562 44.0569 84.6533 43.9665 85.0887 44.0311C85.5243 44.0956 85.947 44.2892 86.0366 44.7926C86.1519 45.4896 86.5618 45.9026 87.1511 46.2124C89.5336 47.4773 91.9075 48.7465 94.2735 50.0201C94.4689 50.1402 94.6924 50.207 94.9213 50.2138C95.1502 50.2206 95.3773 50.1671 95.58 50.0588C98.3467 48.7423 101.101 47.4386 103.868 46.1479C104.585 45.8123 105.161 45.3476 105.559 44.6377C106.096 43.6696 107.39 43.6826 107.992 44.6248C108.084 44.7573 108.125 44.9184 108.11 45.0792C108.124 44.9932 108.122 44.9052 108.101 44.8204C108.081 44.7357 108.044 44.656 107.992 44.5861C107.39 43.6567 106.083 43.6309 105.559 44.599C105.161 45.3218 104.585 45.7736 103.868 46.1091C101.101 47.3999 98.3341 48.7164 95.58 50.0201C95.3773 50.1283 95.1502 50.1817 94.9213 50.1748C94.6924 50.168 94.4689 50.1014 94.2735 49.9813C91.903 48.7035 89.5336 47.4257 87.1511 46.1737C86.5618 45.8639 86.1519 45.4508 86.0366 44.7539C85.9598 44.2505 85.5499 44.0569 85.0887 43.9924C84.6533 43.9278 84.2562 44.0052 83.9999 44.4441C83.6797 44.9862 83.6669 44.9733 83.0264 44.8313C82.8064 44.7839 82.5784 44.7884 82.3603 44.8442C82.2434 44.8621 82.1358 44.9188 82.0546 45.0053C81.9734 45.0918 81.9232 45.2032 81.912 45.3218C81.8868 45.4753 81.8769 45.631 81.8825 45.7864C81.8787 45.6438 81.8886 45.5012 81.912 45.3605C81.9234 45.242 81.9737 45.1307 82.0549 45.0442C82.1361 44.9577 82.2435 44.901 82.3603 44.8829Z" fill="black"/>
<path d="M109.694 67.9742C109.548 67.7161 109.311 67.5145 109.024 67.4048C109.283 67.5238 109.498 67.7136 109.642 67.9496C109.716 68.0833 109.813 68.2048 109.929 68.3095C109.833 68.2096 109.754 68.0966 109.694 67.9742Z" fill="black"/>
<path d="M109.238 70.9587C109.516 70.7205 109.812 70.5104 110.099 70.2863C110.439 70.0201 110.565 69.5437 110.592 68.9973C110.6 68.8572 110.6 68.7171 110.609 68.563C110.611 68.4981 110.629 68.4367 110.659 68.3921C110.689 68.3475 110.729 68.3234 110.771 68.3248C110.792 68.3217 110.813 68.3255 110.833 68.336C110.809 68.3148 110.781 68.306 110.753 68.3108C110.712 68.3121 110.672 68.3371 110.642 68.3812C110.613 68.4253 110.595 68.4851 110.592 68.549C110.583 68.6891 110.583 68.8292 110.574 68.9833C110.547 69.5437 110.421 70.0061 110.081 70.2722C109.794 70.4963 109.507 70.7065 109.22 70.9446C109.191 70.974 109.16 70.9938 109.125 71.0029C109.092 71.0121 109.057 71.0104 109.024 70.9979C109.059 71.0202 109.097 71.0283 109.134 71.0215C109.171 71.0146 109.207 70.993 109.238 70.9587Z" fill="black"/>
<path d="M104.743 66.0314C106.084 65.3007 107.439 64.5841 108.779 63.8533C108.815 63.8278 108.856 63.8111 108.897 63.8041C108.94 63.7972 108.983 63.8003 109.024 63.8132C108.98 63.7914 108.932 63.7824 108.885 63.7869C108.838 63.7913 108.792 63.8093 108.753 63.839C107.412 64.5698 106.058 65.2863 104.717 66.0171C104.587 66.0887 104.444 66.189 104.523 66.3896C104.539 66.4331 104.566 66.4711 104.6 66.5C104.577 66.4726 104.559 66.4398 104.548 66.404C104.47 66.2033 104.6 66.1031 104.743 66.0314Z" fill="black"/>
<path d="M106.812 71.8372C106.741 71.6723 106.842 71.5834 106.953 71.5073C107.224 71.317 107.284 71.0885 107.134 70.7079C106.621 69.4262 106.128 68.1318 105.625 66.8502C105.579 66.7098 105.502 66.5885 105.405 66.5C105.494 66.5881 105.564 66.7046 105.606 66.8376C106.099 68.1318 106.592 69.4135 107.115 70.6951C107.265 71.0632 107.205 71.3043 106.933 71.4946C106.823 71.5707 106.722 71.6468 106.793 71.8245C106.809 71.8683 106.835 71.9047 106.869 71.9286C106.844 71.9046 106.824 71.8732 106.812 71.8372Z" fill="black"/>
<path d="M107.477 68.2549C107.81 68.0728 108.155 67.8909 108.487 67.7089C108.796 67.54 108.919 67.2801 108.783 66.9161C108.734 66.7862 108.611 66.6172 108.857 66.5262C108.912 66.5059 108.97 66.5059 109.024 66.5262C108.994 66.5104 108.962 66.5015 108.929 66.5002C108.896 66.4988 108.864 66.5051 108.833 66.5185C108.599 66.6094 108.71 66.7784 108.759 66.9083C108.894 67.2722 108.771 67.5322 108.463 67.7012C108.13 67.8831 107.785 68.0521 107.452 68.247C107.344 68.3094 107.275 68.3146 107.214 68.2613C107.277 68.3328 107.356 68.3198 107.477 68.2549Z" fill="black"/>
<path d="M81.6819 54.4668C82.0923 54.0735 82.569 53.926 83.1119 54.1718C83.7474 54.4422 84.33 54.3561 84.939 54.1227C87.4282 53.1886 89.9173 52.2793 92.4061 51.3452C92.5391 51.2961 92.7508 51.2961 92.7372 51.1363C92.7381 51.1306 92.7381 51.1248 92.7372 51.1191C92.7191 51.258 92.5246 51.2617 92.4106 51.3084C89.9213 52.23 87.4189 53.1395 84.943 54.0858C84.3207 54.3193 83.7381 54.4176 83.1158 54.1349C82.573 53.9014 82.0963 54.049 81.6859 54.4299C81.4851 54.6142 81.3156 54.8254 81.1828 55.0567C81.0688 55.2357 80.9982 55.4359 80.9762 55.6429C81.0062 55.4491 81.0764 55.2626 81.1828 55.0935C81.3143 54.8625 81.4826 54.6513 81.6819 54.4668Z" fill="black"/>
<path d="M71.0238 41.1667C71.0491 54.1554 81.5729 64.6905 94.5476 64.6905C81.5856 64.6905 71.0491 54.1554 71.0238 41.1667Z" fill="black"/>
<path d="M93.5904 31.8783C93.5352 32.0794 93.4447 32.2706 93.3235 32.4442C92.8928 33.0819 92.3563 33.6509 91.7347 34.1292C90.9874 34.7076 90.0801 34.8334 89.1191 34.8334C90.0801 34.8334 90.9874 34.7202 91.7483 34.1418C92.3672 33.6604 92.9028 33.0921 93.3371 32.4568C93.4529 32.2804 93.5424 32.0901 93.604 31.8908C93.6972 31.5828 93.6266 31.3514 93.357 31.2143C93.6148 31.3627 93.6827 31.5866 93.5904 31.8783Z" fill="black"/>
<path d="M105.405 59.2619C105.673 59.9483 105.992 60.2586 106.31 60.1431C105.992 60.2507 105.674 59.9411 105.405 59.2619Z" fill="black"/>
<path d="M99.0714 31.2143C99.9147 30.9128 100.77 30.6715 101.786 30.3096C100.784 30.6111 99.9283 30.9128 99.0714 31.2143Z" fill="black"/>
<path d="M97.2619 31.2143C96.8168 31.2716 96.4865 31.5486 96.3572 32.1191C96.4133 31.8645 96.5309 31.6395 96.6937 31.4767C96.8566 31.314 97.0556 31.2221 97.2619 31.2143Z" fill="black"/>
<path d="M92.0704 70.8498C92.2884 70.8933 92.5065 70.9803 92.7381 71.0238C92.5201 70.9803 92.302 70.8933 92.0704 70.8498C91.9039 70.8107 91.8306 70.6063 91.8334 70.1191C91.8306 70.6063 91.903 70.8107 92.0704 70.8498Z" fill="black"/>
<path d="M114.963 60.2106C115.224 59.7638 115.582 59.4225 115.991 59.2278C116.19 59.1396 116.328 59.0262 116.19 58.7238C116.121 58.5726 116.209 58.4845 116.289 58.3962C116.305 58.3764 116.326 58.3629 116.348 58.3572C116.335 58.3575 116.323 58.3612 116.311 58.3679C116.298 58.3746 116.288 58.3842 116.279 58.3962C116.199 58.4845 116.121 58.5726 116.18 58.7238C116.318 59.0262 116.18 59.127 115.981 59.2278C115.572 59.4225 115.214 59.7638 114.953 60.2106C113.903 61.9997 114.576 64.5952 116.308 65.4142C116.583 65.5424 116.874 65.6036 117.167 65.5943C116.877 65.6034 116.589 65.5423 116.318 65.4142C114.586 64.5952 113.913 61.9997 114.963 60.2106Z" fill="black"/>
<path d="M120.568 62.1927C120.551 61.9386 120.52 61.6854 120.473 61.4345C120.441 61.245 120.488 61.1284 120.71 61.0846C120.735 61.0785 120.76 61.0741 120.786 61.0714C120.755 61.0728 120.724 61.0771 120.694 61.0846C120.473 61.1284 120.425 61.245 120.456 61.4345C120.504 61.6852 120.536 61.9385 120.551 62.1927C120.667 63.543 119.444 64.6614 118.071 64.6905C119.439 64.6715 120.67 63.5473 120.568 62.1927Z" fill="black"/>
<path d="M100.357 38.3601C100.142 39.5855 99.9572 40.8109 99.7573 42.023C99.7337 42.2678 99.75 42.5143 99.8034 42.7555C99.8351 42.9862 99.7817 43.2196 99.6496 43.422C99.5184 43.6244 99.3157 43.7852 99.0714 43.881C99.3266 43.7916 99.541 43.6313 99.6804 43.4253C99.8188 43.2192 99.8758 42.9789 99.8405 42.7422C99.7934 42.5002 99.7781 42.2545 99.7944 42.0096C99.9943 40.7843 100.193 39.5589 100.393 38.3468C100.463 37.9472 100.624 37.6808 100.881 37.5477C100.6 37.6702 100.429 37.9392 100.357 38.3601Z" fill="black"/>
<path d="M92.7381 68.3095C93.6863 68.3172 94.3965 68.5128 94.5476 69.2143C94.4137 68.5117 93.7017 68.3172 92.7381 68.3095Z" fill="black"/>
<path d="M108.852 65.4014C108.639 65.1247 108.392 64.8853 108.119 64.6905C108.374 64.8866 108.609 65.1181 108.815 65.3798C108.871 65.4678 108.941 65.5411 109.024 65.5952C108.966 65.5392 108.912 65.466 108.852 65.4014Z" fill="black"/>
<path d="M94.2771 67.7361C93.7632 67.6296 93.2502 67.5191 92.7381 67.4048C93.2511 67.5191 93.7641 67.6296 94.2771 67.7361Z" fill="black"/>
<path d="M130.738 40.7389C130.751 21.0319 114.905 4.97627 95.4524 4.97627C114.905 4.97627 130.738 21.0319 130.738 40.7389C130.725 60.1416 115.353 75.9797 96.2757 76.4524C115.353 75.9797 130.725 60.1546 130.738 40.7389Z" fill="black"/>
<path d="M120.786 61.9762C120.786 63.9545 119.501 65.4838 118.071 65.5952C119.512 65.4838 120.795 63.9545 120.786 61.9762Z" fill="black"/>
<path d="M97.2094 37.7867C97.0783 38.2349 96.2477 38.5422 95.6714 38.4222C96.2495 38.554 97.0936 38.2389 97.2257 37.7867C97.4438 37.0483 96.6395 35.3871 95.8523 34.9521C95.7392 34.8792 95.599 34.8375 95.4524 34.8334C95.5926 34.8403 95.7275 34.8818 95.836 34.9521C96.6232 35.3871 97.4266 37.0483 97.2094 37.7867Z" fill="black"/>
<path d="M95.0525 3.16678C74.3214 3.14069 57.4654 19.9474 57.4524 40.6817C57.4394 61.4161 74.2301 78.2358 94.9475 78.2619C115.666 78.288 132.521 61.4813 132.548 40.747C132.574 20.0126 115.757 3.19288 95.0525 3.16678ZM94.9874 77.5181C74.6868 77.5181 58.196 61.0246 58.196 40.7208V40.7078C58.196 20.391 74.7258 3.87141 95.0263 3.89751C115.339 3.9236 131.817 20.4171 131.804 40.7208V40.7339C131.784 61.0441 115.283 77.5311 94.9874 77.5181Z" fill="black"/>
<path d="M130.738 40.7338C130.738 21.0296 114.708 4.97627 95.0127 4.97627C75.3182 4.97627 59.2749 20.9907 59.2619 40.6561C59.2399 57.5962 71.0607 71.8331 86.8683 75.5228L87.0121 75.554C87.5861 75.686 88.1641 75.8033 88.7459 75.9061C90.7875 76.2674 92.8566 76.4503 94.9304 76.4524C95.2344 76.4524 95.5366 76.4489 95.8369 76.442C115.161 75.9695 130.725 60.1337 130.738 40.7338ZM124.795 57.0201C124.056 58.1853 123.306 59.3375 122.555 60.5026C122.524 60.5467 122.498 60.5972 122.464 60.6424C122.429 60.7003 122.374 60.7428 122.308 60.7616C122.259 60.7361 122.211 60.7057 122.166 60.6709L122.157 60.6645C122.092 60.5868 122.157 60.5091 122.196 60.4573C122.365 60.1854 122.533 59.9266 122.701 59.6547C123.309 58.7096 123.905 57.7775 124.513 56.8324C124.578 56.7417 124.605 56.5087 124.825 56.6511C124.84 56.6624 124.854 56.6749 124.867 56.6887C125.008 56.8129 124.855 56.9295 124.795 57.0201ZM120.819 59.2209C119.576 59.2209 118.308 58.0817 118.32 56.9813C118.328 56.154 118.683 55.4692 119.246 55.0691C119.6 54.8165 120.023 54.6807 120.457 54.6808C121.683 54.6808 122.807 55.6711 122.954 56.8505C122.963 56.9295 122.968 57.0084 122.969 57.0887C122.973 57.4696 122.874 57.8443 122.681 58.1729C122.489 58.5013 122.21 58.771 121.875 58.953C121.552 59.1307 121.188 59.223 120.819 59.2209ZM125.959 54.6898C125.864 54.797 125.749 54.8842 125.621 54.9459C125.491 55.0078 125.352 55.0431 125.209 55.0497C124.957 55.0439 124.717 54.9385 124.542 54.7566C124.368 54.5746 124.273 54.3309 124.277 54.0787C124.272 53.8174 124.355 53.5621 124.512 53.3537C124.606 53.2202 124.729 53.1107 124.873 53.0342C125.016 52.9576 125.176 52.9163 125.339 52.9136C125.574 52.9177 125.798 53.009 125.969 53.1698C126.141 53.3307 126.246 53.5494 126.264 53.7835C126.264 53.8172 126.264 53.8508 126.264 53.8845C126.269 54.183 126.16 54.4722 125.959 54.6923V54.6898ZM128.249 43.5405C128.157 43.9134 128.031 44.2773 127.874 44.628C127.776 44.8475 127.666 45.0611 127.543 45.2675C127.491 45.3556 127.435 45.4423 127.378 45.5265L127.294 45.6559C127.258 45.7038 127.225 45.7517 127.191 45.7983C126.724 46.4068 126.167 46.8599 125.339 46.847C124.264 46.834 123.487 46.2515 123.202 45.2028C123.176 45.1031 123.154 45.0047 123.134 44.905C123.101 44.7458 123.077 44.5865 123.057 44.4286C123.038 44.2707 123.022 44.0868 123.013 43.9172C122.999 43.6583 122.995 43.4136 122.995 43.1702C122.967 42.379 123.055 41.588 123.254 40.8218C123.302 40.6353 123.355 40.449 123.412 40.2651C123.44 40.1736 123.47 40.0817 123.501 39.9893C123.593 39.7162 123.695 39.4443 123.804 39.1751C123.876 38.9951 123.952 38.8177 124.029 38.6391C124.135 38.3472 124.317 38.0887 124.555 37.8903C124.794 37.6919 125.082 37.5606 125.387 37.5101C125.776 37.4325 126.11 37.2409 126.51 37.4208C126.951 37.615 127.248 37.9646 127.495 38.3658C128.444 39.8703 128.684 41.8057 128.249 43.5431V43.5405ZM123.976 24.0176C123.933 23.8791 123.901 23.7496 124.001 23.6641C124.026 23.6245 124.062 23.594 124.106 23.5774C124.3 23.4868 124.404 23.6421 124.468 23.7845L125.557 26.076C125.609 26.2055 125.633 26.322 125.557 26.4101C125.537 26.4497 125.505 26.4823 125.465 26.5032C125.297 26.6068 125.18 26.5032 125.077 26.3479C124.74 25.8171 124.689 25.8041 124.132 26.0631C123.653 26.2832 123.186 26.5162 122.695 26.7363C122.622 26.7655 122.557 26.8096 122.504 26.8658C122.474 26.9292 122.488 27.0134 122.552 27.1415C122.888 27.8018 123.2 28.475 123.497 29.1481C123.6 29.3553 123.678 29.433 123.912 29.3165C124.417 29.0446 124.948 28.7986 125.479 28.5656C125.601 28.5181 125.708 28.4368 125.786 28.3312C125.821 28.256 125.838 28.174 125.836 28.0912C125.834 28.0085 125.814 27.9273 125.776 27.8535C125.722 27.7125 125.633 27.5454 125.747 27.4341C125.776 27.3899 125.818 27.3556 125.867 27.3357C126.139 27.2192 126.203 27.4781 126.281 27.6464C126.618 28.3326 126.942 29.0317 127.266 29.7178C127.309 29.8124 127.34 29.9127 127.356 30.0155C127.359 30.0432 127.356 30.0712 127.348 30.0976C127.339 30.1239 127.324 30.1481 127.305 30.1683C127.256 30.2296 127.194 30.2791 127.123 30.3134C126.967 30.391 126.954 30.2615 126.903 30.171C126.515 29.5495 126.501 29.5366 125.841 29.8472L121.723 31.7892C121.564 31.8502 121.415 31.9377 121.286 32.0482C121.199 32.1775 121.239 32.342 121.348 32.6838C121.366 32.7281 121.374 32.7756 121.373 32.8233C121.371 32.871 121.359 32.9178 121.339 32.9608C121.328 32.9907 121.311 33.0177 121.289 33.0401C121.266 33.0625 121.239 33.0797 121.209 33.0903C121.041 33.168 120.938 33.0644 120.86 32.922C120.484 32.1323 120.122 31.3555 119.746 30.5658C119.72 30.5244 119.705 30.4763 119.705 30.4273C119.705 30.3783 119.72 30.3302 119.746 30.2888C119.769 30.245 119.806 30.2103 119.851 30.1903C120.007 30.1127 120.11 30.1774 120.214 30.3198C120.589 30.8636 120.615 30.8636 121.197 30.6046C121.729 30.3586 122.246 30.0998 122.777 29.8667C122.833 29.8472 122.884 29.8138 122.924 29.7696C122.933 29.7331 122.934 29.695 122.926 29.6581C122.918 29.6211 122.903 29.5863 122.881 29.556C122.545 28.8569 122.208 28.1578 121.884 27.4457C121.806 27.2775 121.729 27.2257 121.56 27.3163C120.951 27.614 120.33 27.9118 119.708 28.2095C119.637 28.2263 119.573 28.2674 119.528 28.3261C119.475 28.4108 119.452 28.5113 119.462 28.6109C119.488 28.7006 119.523 28.7873 119.566 28.8698C119.596 28.9993 119.665 29.1378 119.587 29.2349C119.572 29.2621 119.553 29.2863 119.53 29.3058C119.506 29.3255 119.479 29.34 119.449 29.3488C119.23 29.4395 119.152 29.2582 119.074 29.1029C118.789 28.4944 118.504 27.8859 118.206 27.2775C118.128 27.1221 118.052 26.9668 117.986 26.8114C117.964 26.7682 117.951 26.7199 117.951 26.6709C117.951 26.622 117.964 26.5737 117.986 26.5305C118.006 26.4823 118.043 26.4438 118.091 26.423C118.26 26.3323 118.363 26.4101 118.454 26.5525C118.83 27.0962 118.842 27.1092 119.425 26.8373C120.836 26.177 122.248 25.5168 123.647 24.8436C123.782 24.7903 123.91 24.7174 124.026 24.6273C124.113 24.4992 124.077 24.3464 123.979 24.0201L123.976 24.0176ZM119.833 18.2824C120.584 18.2954 121.218 18.7743 121.633 19.577C121.691 19.687 121.743 19.801 121.789 19.915C121.836 20.0289 121.879 20.1467 121.918 20.2632C121.977 20.4186 122.042 20.5298 122.169 20.5221C122.222 20.5183 122.273 20.5033 122.32 20.4781C122.351 20.4613 122.386 20.452 122.422 20.4509C122.441 20.4513 122.46 20.4556 122.479 20.4636C122.498 20.4717 122.514 20.4832 122.527 20.4975C122.547 20.5169 122.564 20.5382 122.581 20.561C122.59 20.5716 122.598 20.5829 122.605 20.5946C122.632 20.6325 122.648 20.6775 122.65 20.7241C122.65 20.7482 122.647 20.7723 122.639 20.7953C122.633 20.812 122.625 20.8281 122.615 20.8432C122.599 20.8706 122.578 20.8951 122.554 20.9156C122.023 21.3818 121.479 21.8607 120.935 22.3138C120.907 22.3385 120.874 22.3569 120.838 22.3678C120.803 22.3786 120.766 22.3817 120.729 22.3768C120.692 22.3719 120.656 22.3591 120.625 22.3393C120.594 22.3195 120.567 22.2931 120.546 22.2621C120.522 22.2374 120.504 22.2072 120.494 22.1741C120.49 22.1549 120.49 22.1352 120.493 22.1158C120.496 22.0964 120.503 22.078 120.514 22.0614C120.528 22.0364 120.543 22.0122 120.56 21.9889L120.585 21.9514C120.74 21.7392 120.883 21.5188 121.013 21.2911C121.166 20.9743 121.21 20.6154 121.137 20.271C121.064 19.9265 120.88 19.6159 120.611 19.388C120.573 19.3575 120.534 19.3294 120.493 19.3039C120.416 19.2533 120.333 19.2124 120.246 19.1822C120.162 19.1534 120.076 19.1373 119.987 19.1342C119.846 19.131 119.705 19.1602 119.576 19.2197C119.435 19.2826 119.315 19.387 119.233 19.5192C119.153 19.6514 119.113 19.8052 119.121 19.9602C119.121 20.006 119.121 20.0526 119.121 20.1001C119.185 20.9675 119.483 21.796 119.612 22.6634C119.81 24.0072 118.955 25.0468 117.789 25.074C117.561 25.0783 117.332 25.0468 117.113 24.9808C117.02 24.9522 116.929 24.9185 116.839 24.8798L116.808 24.8655C116.737 24.8332 116.668 24.7982 116.601 24.7607L116.506 24.705C116.465 24.6792 116.425 24.6519 116.385 24.6234C116.344 24.595 116.283 24.5484 116.233 24.5083L116.181 24.4642C116.118 24.4098 116.058 24.3516 116 24.2907C115.996 24.2861 115.991 24.2818 115.987 24.2778C115.925 24.2105 115.866 24.1406 115.81 24.0681L115.798 24.0538C115.749 23.9865 115.701 23.9244 115.654 23.8467L115.614 23.7872C115.586 23.7392 115.557 23.6913 115.53 23.6409C115.493 23.5709 115.456 23.4997 115.421 23.426C115.331 23.2317 115.253 23.0376 115.175 22.8434C115.098 22.6491 115.007 22.442 114.722 22.6233C114.701 22.6382 114.676 22.646 114.651 22.6453C114.63 22.6447 114.609 22.6375 114.593 22.6245C114.574 22.6115 114.557 22.5958 114.543 22.5779C114.529 22.5598 114.515 22.5391 114.502 22.5197C114.483 22.4943 114.467 22.467 114.454 22.4382C114.442 22.411 114.436 22.3821 114.434 22.3527C114.433 22.3231 114.437 22.2934 114.449 22.2662C114.461 22.2389 114.479 22.2149 114.502 22.196C115.059 21.7041 115.615 21.2251 116.185 20.759C116.218 20.7283 116.261 20.7116 116.305 20.7124C116.333 20.7142 116.36 20.7217 116.385 20.7344C116.428 20.7564 116.465 20.7868 116.496 20.8237C116.532 20.8622 116.556 20.9119 116.561 20.9648C116.562 21.0176 116.543 21.069 116.509 21.1085L116.237 21.4969C116.015 21.8282 115.911 22.2247 115.943 22.6223C115.975 23.0197 116.141 23.3948 116.413 23.6862C116.492 23.7708 116.579 23.848 116.672 23.9166C116.858 24.0605 117.084 24.1444 117.32 24.1574C117.467 24.1561 117.611 24.1183 117.74 24.0474C118.128 23.8402 118.258 23.5036 118.232 23.0893C118.226 22.9987 118.217 22.9081 118.206 22.8188C118.185 22.6388 118.155 22.4601 118.121 22.2828C118.104 22.1934 118.088 22.1054 118.07 22.0161C118.033 21.8388 117.995 21.6627 117.957 21.4853C117.921 21.3079 117.885 21.1319 117.857 20.9532C117.815 20.7107 117.79 20.4653 117.785 20.2191C117.785 20.1363 117.785 20.0535 117.792 19.9693C117.893 18.9711 118.657 18.272 119.836 18.285L119.833 18.2824ZM115.265 13.5726C115.288 13.5503 115.316 13.5328 115.346 13.5207C115.485 13.4444 115.605 13.5622 115.718 13.6632L117.608 15.2815C117.658 15.3135 117.701 15.3552 117.734 15.4042C117.767 15.453 117.791 15.5082 117.803 15.5663C117.802 15.599 117.795 15.6313 117.781 15.661C117.767 15.6908 117.748 15.7175 117.724 15.7395C117.7 15.7615 117.671 15.7782 117.64 15.7887C117.609 15.7992 117.577 15.8033 117.543 15.8007C117.489 15.8004 117.435 15.7865 117.388 15.7605C117.098 15.6039 116.932 15.5158 116.799 15.5119C116.628 15.5119 116.503 15.6569 116.223 15.9806C115.212 17.1587 114.203 18.3368 113.193 19.5278C112.83 19.955 112.843 20.0069 113.206 20.4211C113.335 20.5635 113.491 20.693 113.31 20.8872C113.291 20.9119 113.268 20.9325 113.241 20.9473C113.214 20.9622 113.184 20.971 113.153 20.9733C113.122 20.9754 113.092 20.971 113.064 20.9601C113.035 20.9494 113.008 20.9324 112.987 20.9105C112.941 20.8794 112.897 20.8432 112.857 20.8095L110.967 19.1912C110.838 19.0747 110.682 18.9452 110.824 18.764C110.838 18.7403 110.855 18.7194 110.877 18.7027C110.898 18.6859 110.923 18.6737 110.949 18.6666C110.975 18.6594 111.003 18.6576 111.03 18.6612C111.056 18.6649 111.082 18.6738 111.106 18.6877C111.165 18.7168 111.223 18.751 111.278 18.7899C111.523 18.9556 111.666 19.0333 111.796 18.997C111.94 18.9261 112.063 18.819 112.153 18.6863C113.227 17.4435 114.302 16.1877 115.364 14.9319C115.74 14.4917 115.727 14.4788 115.352 14.0386C115.239 13.8962 115.07 13.7538 115.265 13.5726ZM104.569 15.2944C104.737 13.6502 104.919 12.019 105.1 10.3749C105.139 9.9606 105.19 9.53337 105.229 9.11906C105.256 8.83425 105.217 8.58827 104.944 8.43291C104.79 8.34229 104.712 8.19988 104.828 8.03158L104.839 8.01734C104.839 8.00957 104.847 8.0018 104.854 7.99275C104.958 7.83739 105.113 7.90212 105.242 7.96685C105.877 8.27756 106.499 8.58827 107.133 8.88603C107.275 8.96371 107.431 9.05434 107.353 9.24853C107.342 9.27777 107.326 9.3049 107.305 9.3288C107.222 9.47768 107.079 9.45826 106.926 9.40388C106.719 9.31973 106.599 9.36245 106.527 9.46861C106.491 9.55102 106.469 9.63832 106.46 9.72753C106.33 10.7762 106.214 11.8249 106.084 12.8735C106.058 13.1324 106.032 13.3783 106.006 13.6243L106.078 13.6774C106.089 13.6846 106.1 13.6928 106.11 13.7021C106.731 13.0676 107.366 12.4592 107.974 11.773C107.992 11.7538 108.006 11.7336 108.02 11.7122C108.306 11.2293 108.181 10.1664 107.819 9.80525C107.728 9.70166 107.625 9.611 107.728 9.46861L107.74 9.45566C107.744 9.44652 107.749 9.43783 107.754 9.42978C107.792 9.37429 107.849 9.33524 107.914 9.32077C107.979 9.3063 108.047 9.31752 108.104 9.35209C108.816 9.68872 109.529 10.0382 110.241 10.3878C110.383 10.4525 110.461 10.5561 110.395 10.7115C110.384 10.7368 110.369 10.7607 110.352 10.7827C110.336 10.8119 110.313 10.8372 110.287 10.857C110.26 10.8769 110.229 10.8906 110.196 10.8974C110.163 10.9041 110.129 10.9037 110.097 10.8962C110.064 10.8887 110.034 10.8742 110.007 10.8539C109.749 10.7244 109.598 10.7749 109.506 10.9263C109.473 11.0026 109.451 11.0827 109.437 11.1646C109.217 12.4463 109.127 13.7409 108.971 15.0355C109.101 15.0614 109.14 14.9837 109.192 14.9319C110.02 14.1033 110.849 13.2748 111.678 12.4333C111.77 12.3452 111.853 12.249 111.928 12.1459C112.007 11.9866 111.905 11.8869 111.626 11.6565C111.523 11.5659 111.419 11.4753 111.497 11.3329C111.505 11.3199 111.514 11.3082 111.521 11.2967L111.527 11.2875C111.546 11.258 111.571 11.2326 111.599 11.2127C111.628 11.1928 111.659 11.1789 111.694 11.1717C111.728 11.1646 111.763 11.1644 111.797 11.1712C111.831 11.178 111.864 11.1915 111.893 11.2112C112.398 11.4572 112.916 11.7032 113.421 11.9491C113.589 12.0397 113.68 12.1563 113.602 12.3375C113.591 12.3722 113.573 12.404 113.549 12.4307C113.47 12.5602 113.353 12.5136 113.226 12.467C112.903 12.3504 112.67 12.5317 112.449 12.7389C111.634 13.5415 110.818 14.3571 110.002 15.1598C109.368 15.7812 108.746 16.4155 108.112 17.0241C107.995 17.1405 107.905 17.3348 107.659 17.2053C107.412 17.0758 107.503 16.8946 107.517 16.7263C107.62 15.6647 107.736 14.6031 107.853 13.5415C107.866 13.3732 107.917 13.2178 107.866 13.0366C107.685 13.0366 107.62 13.192 107.517 13.2826C106.713 14.0593 105.923 14.8361 105.133 15.6C105.03 15.7035 104.952 15.8977 104.719 15.7812C104.486 15.6647 104.556 15.4627 104.569 15.2944ZM89.8983 7.22892C90.1042 7.22892 90.3114 7.22892 90.5186 7.21985C90.7555 7.2082 90.9928 7.19655 91.2317 7.19008C91.6461 7.16418 92.0478 7.15124 92.4622 7.12534C92.6305 7.1124 92.7861 7.15124 92.7987 7.37133C92.8033 7.41626 92.7942 7.46153 92.7716 7.50079C92.7336 7.60047 92.6214 7.62119 92.5011 7.6419C92.1645 7.69886 92.0062 7.73641 91.9347 7.85939C91.8876 8.01967 91.8732 8.1879 91.8922 8.35394C91.9057 8.91063 91.9311 9.46732 91.9437 10.0111C91.9437 10.2311 92.0089 10.3088 92.2423 10.2959C93.0059 10.2441 93.7695 10.2182 94.5341 10.2052C94.6508 10.2052 94.715 10.1794 94.7485 10.1314C94.7693 10.0724 94.7756 10.0095 94.7666 9.94766C94.7413 9.37799 94.7024 8.79541 94.7024 8.21283C94.7024 7.79855 94.5078 7.60436 94.107 7.59141C93.9252 7.57846 93.6926 7.60436 93.7053 7.33249C93.7071 7.29477 93.7162 7.25777 93.7325 7.22373C93.7876 7.05415 93.9912 7.07227 94.145 7.06062C94.9485 7.02177 95.751 6.99588 96.5535 6.96999C96.748 6.95705 96.9036 6.99588 96.9163 7.22892C96.9235 7.28239 96.9109 7.33668 96.881 7.38168C96.8295 7.48395 96.6901 7.46454 96.5797 7.4749C96.3011 7.50985 96.1473 7.55257 96.0622 7.6665C95.998 7.81387 95.9745 7.97561 95.9935 8.13515C96.045 9.74047 96.1102 11.3587 96.1871 12.9641C96.2133 13.4302 96.3174 13.5207 96.796 13.5596C96.9769 13.5726 97.1841 13.5726 97.1841 13.7926C97.1914 13.8521 97.1751 13.9119 97.1389 13.9596C97.0746 14.0774 96.919 14.0801 96.7697 14.0891C95.9799 14.115 95.19 14.1539 94.4002 14.1798C94.2319 14.1798 94.0247 14.2056 93.9994 13.9726C93.9894 13.9143 94.0003 13.8545 94.0292 13.803C94.079 13.6736 94.2373 13.6736 94.3875 13.6619C94.4644 13.6627 94.5413 13.648 94.6119 13.6185C94.6834 13.5892 94.7476 13.5458 94.8019 13.491C94.8905 13.3633 94.9267 13.2072 94.9059 13.0534C94.867 12.419 94.8408 11.7847 94.8408 11.1504C94.8408 10.9173 94.7367 10.8655 94.5305 10.8785C93.7659 10.9173 93.0023 10.9432 92.2378 10.969C92.1084 10.9768 92.0306 11.0053 91.9917 11.0753C91.979 11.125 91.9745 11.1767 91.979 11.228C92.0179 11.8494 92.0306 12.4709 92.0831 13.0922C92.122 13.5972 92.1989 13.6748 92.7046 13.7267C92.8729 13.7396 93.0801 13.7136 93.0928 13.9596C93.0928 13.9954 93.0865 14.0309 93.0747 14.0645C93.0385 14.2406 92.8385 14.2328 92.6784 14.2445C91.8885 14.2833 91.0987 14.3092 90.3087 14.3481C90.1146 14.361 89.8945 14.361 89.8814 14.115C89.8764 14.0653 89.8878 14.0153 89.9138 13.9726C89.9657 13.856 90.1146 13.8302 90.257 13.8302C90.4952 13.8224 90.6544 13.7409 90.7399 13.5907C90.7878 13.483 90.8087 13.3652 90.8008 13.2476C90.7231 11.5776 90.6454 9.89455 90.5807 8.22448C90.5678 7.91377 90.3994 7.77136 90.1016 7.75841C90.0239 7.74547 89.9462 7.74547 89.8685 7.73253C89.7131 7.70663 89.5837 7.6419 89.5966 7.46066C89.5992 7.43283 89.6067 7.40568 89.6186 7.38039C89.6575 7.25999 89.7727 7.22892 89.8983 7.22892ZM81.7796 9.68872C83.437 9.09317 85.1074 8.49765 86.7647 7.90212C86.8117 7.88317 86.8617 7.87266 86.9124 7.87105C87.0418 7.86328 87.1208 7.93578 87.1791 8.08337C87.3215 8.49765 87.4769 8.89898 87.6193 9.31326C87.6352 9.34274 87.6448 9.37518 87.6475 9.40855C87.6501 9.44192 87.6458 9.47548 87.6349 9.50713C87.6239 9.53871 87.6066 9.56775 87.5839 9.59236C87.5611 9.61688 87.5335 9.63652 87.5028 9.64982C87.4719 9.66773 87.4361 9.67542 87.4005 9.67189C87.3112 9.67189 87.271 9.57734 87.218 9.5075C86.9124 9.11906 86.5705 8.91452 86.2041 8.90157C85.8746 8.90823 85.555 9.01577 85.2886 9.20969C85.1591 9.28737 85.185 9.37799 85.2239 9.46861C85.8066 11.0739 86.3892 12.6923 86.9719 14.2976C86.996 14.3975 87.052 14.487 87.1314 14.5524C87.2108 14.6179 87.3094 14.6556 87.4122 14.66C87.5028 14.6341 87.6193 14.5953 87.7229 14.5695C87.779 14.5539 87.8369 14.546 87.8951 14.5461C87.942 14.5418 87.9888 14.555 88.0263 14.5832C88.0639 14.6114 88.0896 14.6527 88.0984 14.6989C88.1503 14.8672 88.0337 14.9708 87.8913 15.0355C87.5028 15.1779 87.1273 15.3074 86.7388 15.4498C86.3245 15.5922 85.9231 15.7475 85.5087 15.89L85.4518 15.9055C85.3093 15.9521 85.1656 15.9365 85.1074 15.7605C85.0491 15.5844 85.172 15.5145 85.3145 15.4368C85.8583 15.165 85.8712 15.1391 85.6641 14.5565C85.1332 13.0288 84.5764 11.5011 84.0455 9.97354C83.9899 9.82208 83.9238 9.74436 83.8293 9.73405C83.7596 9.73794 83.6919 9.75784 83.6311 9.79222C83.5017 9.85701 83.3593 9.89582 83.2298 9.94766C82.5435 10.2325 82.4529 10.3878 82.5046 11.1128C82.5176 11.2682 82.5823 11.4364 82.3493 11.4882C82.3248 11.4906 82.3001 11.4906 82.2754 11.4882C82.1226 11.4882 82.0463 11.3847 81.9997 11.2358C81.8573 10.8474 81.7277 10.472 81.5853 10.0836C81.5206 9.88288 81.5853 9.75341 81.7796 9.68872ZM76.5612 12.3556C76.6066 12.3162 76.6641 12.2938 76.7241 12.2922C76.7841 12.2905 76.8428 12.3097 76.8901 12.3465C76.9096 12.357 76.9303 12.3685 76.9498 12.3815C77.4547 12.7311 77.9468 13.0676 78.4517 13.4172C79.0642 13.838 79.6792 14.2549 80.2957 14.673L80.4147 14.7546C81.0484 15.1861 81.6803 15.6176 82.3105 16.0492C82.4299 16.1318 82.558 16.2013 82.6925 16.2563C82.8053 16.3018 82.9277 16.3184 83.0486 16.305C83.1695 16.2914 83.2852 16.248 83.3851 16.1787C83.4068 16.1604 83.4333 16.149 83.4614 16.1457C83.4896 16.1426 83.518 16.1476 83.5431 16.1605C83.6053 16.176 83.6416 16.2421 83.683 16.3081C83.7866 16.4764 83.7089 16.58 83.5794 16.6706C83.0355 17.0331 82.4788 17.3956 81.922 17.7581C81.8054 17.8357 81.676 17.9134 81.5594 17.9911C81.5204 18.0198 81.474 18.0364 81.4258 18.0392C81.3775 18.0419 81.3294 18.0306 81.2875 18.0066C81.2366 17.9818 81.1923 17.9456 81.158 17.9005C81.0414 17.7581 81.145 17.6804 81.2357 17.5769C81.5853 17.2273 81.5853 17.1497 81.1839 16.8518C80.9159 16.6564 80.6401 16.3793 80.3565 16.255C80.294 16.2291 80.2282 16.212 80.1609 16.2045C79.8632 16.1787 79.5265 16.5671 79.2028 16.7742C78.9179 16.9554 78.6331 17.1496 78.3352 17.3438C78.2057 17.3956 78.1021 17.4603 78.1151 17.6157C78.2057 18.0559 78.2964 18.496 78.4129 18.9233C78.4192 18.9646 78.4339 19.0042 78.4562 19.0397C78.4784 19.0751 78.5078 19.1056 78.5424 19.1291C78.646 19.1705 78.782 19.12 78.923 19.0657C79.0422 19.0255 79.1614 18.8883 79.2792 18.9479C79.3386 18.9733 79.3868 19.0192 79.4151 19.0773C79.5575 19.3362 79.3633 19.4398 79.2079 19.5434L77.8484 20.4366C77.7124 20.5273 77.5751 20.5881 77.4469 20.4871C77.4181 20.47 77.3918 20.4486 77.3693 20.4237C77.2009 20.2425 77.3563 20.1389 77.4599 20.0224C77.68 19.8023 77.706 19.5304 77.6541 19.2456C77.3045 17.2778 76.942 15.297 76.5794 13.3292L76.4628 12.6689C76.4405 12.6134 76.4381 12.5518 76.456 12.4947C76.4739 12.4376 76.5111 12.3884 76.5612 12.3556ZM67.8598 21.1073C68.7921 19.9033 69.7373 18.7252 70.6696 17.5211C70.9028 17.2234 71.0969 17.1975 71.3689 17.4565C71.602 17.6765 71.8609 17.8578 72.1069 18.052C72.1313 18.0714 72.1542 18.0926 72.1756 18.1154L72.1912 18.131C72.2368 18.1696 72.2666 18.2237 72.2748 18.283C72.2829 18.3423 72.2688 18.4025 72.2351 18.452C72.1315 18.6203 72.0021 18.5038 71.8855 18.452C71.2122 18.1671 71.0569 18.206 70.6037 18.7627C70.2929 19.1511 69.9821 19.5524 69.6713 19.9408C69.573 20.0612 69.5677 20.144 69.6545 20.2373C69.6638 20.247 69.6737 20.2561 69.6842 20.2645C70.1763 20.6399 70.6683 21.0283 71.1474 21.4167C71.2899 21.5332 71.3676 21.5073 71.4711 21.3779C71.7431 21.0283 72.015 20.6788 72.287 20.3162C72.5265 20.0133 72.4811 19.735 72.2144 19.4683C72.1637 19.4322 72.1156 19.3924 72.0707 19.3492C71.9994 19.2857 71.9594 19.2054 72.0707 19.0734C72.239 18.8663 72.3944 18.944 72.5498 19.0734L74.0647 20.2774C74.079 20.2903 74.0932 20.3033 74.1062 20.3176C74.1362 20.3353 74.1619 20.3594 74.1817 20.3882C74.2014 20.4168 74.2147 20.4495 74.2206 20.4838C74.2266 20.5182 74.225 20.5534 74.2159 20.587C74.2069 20.6207 74.1907 20.652 74.1683 20.6788C74.0518 20.86 73.9482 20.7953 73.8058 20.7305C73.2102 20.4457 73.1195 20.4586 72.7051 20.9636C72.4721 21.2484 72.252 21.5462 72.006 21.831C71.9192 21.9281 71.9036 21.9954 71.9619 22.0666L71.9697 22.0731C71.984 22.0865 71.9992 22.0991 72.015 22.1106C72.1912 22.2465 72.3633 22.3825 72.533 22.5184C72.7725 22.7035 73.012 22.89 73.249 23.0803L73.6944 23.4311C73.8369 23.5477 73.9664 23.5606 74.07 23.4182C74.4713 22.9262 74.8598 22.4213 75.2353 21.9164C75.3008 21.8312 75.3412 21.7295 75.3519 21.6225C75.3519 21.5901 75.3596 21.5578 75.3609 21.5254V21.5177C75.3609 21.472 75.3609 21.4288 75.3609 21.3882C75.3609 21.0387 75.2185 20.715 75.0761 20.3784C75.0242 20.2101 74.9725 20.0677 75.1537 19.9641C75.1768 19.9455 75.2036 19.9321 75.2322 19.9247C75.2609 19.9174 75.2908 19.9164 75.3199 19.9217C75.349 19.9269 75.3767 19.9384 75.401 19.9554C75.4253 19.9723 75.4456 19.9943 75.4606 20.0198C75.4966 20.0595 75.5283 20.1029 75.5552 20.1493C75.8012 20.5247 76.0342 20.9131 76.2933 21.2755C76.4357 21.4698 76.3969 21.5993 76.2673 21.7675C75.2833 22.9974 74.3121 24.2273 73.3409 25.4702C73.2373 25.5996 73.1208 25.768 72.9266 25.6255C72.9031 25.6084 72.8818 25.5884 72.8631 25.5659C72.7259 25.4364 72.8192 25.2902 72.9266 25.1594C73.139 24.8914 73.1376 24.6623 72.9357 24.4474C72.9084 24.4215 72.8813 24.3956 72.8489 24.3697L70.6671 22.6466C70.371 22.4135 70.0753 22.1797 69.7801 21.9449L69.064 21.3791C68.7532 21.1331 68.4814 21.1073 68.2354 21.4569C68.1318 21.5993 67.9763 21.7286 67.808 21.5733C67.7876 21.5567 67.7697 21.537 67.7549 21.5151C67.6371 21.3727 67.764 21.2394 67.8598 21.1073ZM63.1336 29.6777C63.5609 28.7326 63.9753 27.7746 64.4154 26.8295C64.4517 26.7505 64.4893 26.6742 64.5307 26.5964C64.6544 26.3604 64.7978 26.1352 64.9593 25.9233C65.9046 24.6287 67.1865 24.2403 68.7662 24.7581C70.2941 25.2889 71.2264 26.5188 71.2264 28.1759C71.2031 28.7243 71.0802 29.2639 70.8639 29.7683C70.4625 30.6875 70.0611 31.6066 69.6596 32.5129L69.6208 32.5957C69.5522 32.7498 69.477 32.9025 69.2583 32.8107C69.0394 32.7188 69.1159 32.5259 69.1935 32.3704C69.3489 32.008 69.2324 31.762 68.8827 31.6066C67.3548 30.9335 65.8398 30.2732 64.3249 29.6C63.9778 29.4459 63.7447 29.547 63.5894 29.8796C63.5777 29.9042 63.5661 29.9301 63.5531 29.9547C63.4832 30.0971 63.3964 30.2421 63.1853 30.1308C62.9743 30.0194 63.0688 29.833 63.1336 29.6777ZM66.4485 46.2618C65.7233 46.8702 64.286 46.7926 63.522 46.0676C63.3664 45.9225 63.221 45.7668 63.087 45.6015C63.0429 45.5485 63.0002 45.4928 62.9575 45.4371C62.7929 45.2166 62.6469 44.9827 62.5212 44.738C62.4888 44.6759 62.459 44.615 62.4291 44.5516C62.3115 44.3 62.2115 44.0404 62.1301 43.7748C62.0666 43.5742 62.0135 43.367 61.9669 43.156C61.8725 42.7357 61.8238 42.3063 61.8219 41.8756C61.8238 41.1532 61.949 40.4365 62.1922 39.7563C62.296 39.4594 62.4162 39.1686 62.5522 38.885C62.6437 38.6935 62.7421 38.5031 62.8474 38.3141C62.8897 38.2392 62.9359 38.1665 62.9859 38.0966C63.0066 38.0668 63.03 38.0383 63.052 38.0098C63.0741 37.9814 63.1038 37.9451 63.1297 37.9141C63.2398 37.7861 63.3611 37.6683 63.4922 37.562C63.5402 37.5231 63.588 37.4842 63.6373 37.4467C63.9222 37.2396 64.2459 37.0842 64.5955 37.1231C65.0228 37.1619 65.3983 37.4079 65.8127 37.5115C66.2788 37.6279 66.4989 38.0941 66.6932 38.5213C66.8978 38.9535 67.071 39.4 67.2111 39.8573C67.2664 40.0411 67.3168 40.2263 67.3626 40.4127C67.4545 40.786 67.5254 41.1642 67.575 41.5454C67.6332 42.0178 67.657 42.4938 67.6462 42.9695C67.6177 43.3489 67.5879 43.7567 67.5374 44.1658C67.5192 44.3017 67.4999 44.439 67.4778 44.5749C67.3522 45.241 66.9892 45.839 66.4562 46.2579L66.4485 46.2618ZM72.8334 59.5886C72.8334 59.5019 72.9097 59.4294 72.9628 59.3504C73.2251 58.9987 73.4144 58.5982 73.5196 58.1723C73.5323 58.1004 73.5405 58.0277 73.5442 57.9548C73.5869 56.8725 72.6598 55.8407 71.5515 55.8161C70.3083 55.8031 68.5215 56.9553 68.0294 58.1075C67.9257 58.3491 67.8703 58.6086 67.8663 58.8714C67.8585 59.9913 68.7403 61.0839 69.9057 61.1888C70.1259 61.2147 70.3589 61.2276 70.5791 61.2405C70.7732 61.2405 70.8251 61.3441 70.8251 61.5124C70.8251 61.5202 70.8251 61.5254 70.8251 61.5331C70.8251 61.5331 70.8251 61.5422 70.8251 61.5474C70.8251 61.5526 70.8251 61.5694 70.8251 61.5785C70.8043 61.7287 70.6878 61.7416 70.566 61.7533L70.4365 61.761C70.348 61.7753 70.2582 61.7813 70.1686 61.7792C68.8607 61.7792 67.9155 61.1836 67.294 60.0961C66.9077 59.4717 66.7482 58.7335 66.842 58.0053C66.9061 57.5643 67.0551 57.1401 67.281 56.756C68.4334 54.7752 70.9714 54.1149 72.7453 55.3449C73.5352 55.9016 74.0532 56.6395 74.1956 57.6105C74.2473 57.9082 74.325 58.1024 74.6746 57.9859C74.856 57.9212 74.9336 58.0506 75.0113 58.1801C75.0329 58.2125 75.0421 58.2515 75.0372 58.2901C75.0372 58.3833 74.9298 58.4274 74.8689 58.4779C74.3509 58.8922 73.846 59.3064 73.328 59.7206C73.1985 59.8242 73.069 59.889 72.9136 59.7466C72.8881 59.7291 72.8674 59.7054 72.8534 59.6778C72.8393 59.6503 72.8324 59.6196 72.8334 59.5886ZM76.4835 68.2704C75.6367 68.2762 74.8179 67.9665 74.1869 67.4017C73.5559 66.8369 73.1578 66.0573 73.0703 65.2151C73.0584 65.0989 73.0524 64.9823 73.0522 64.8655C73.0522 63.378 73.9728 62.0252 75.2405 61.3895C75.7291 61.1366 76.2701 61.0013 76.8202 60.9946C78.7625 60.9946 80.2645 62.5093 80.2516 64.4771V64.4901C80.2386 66.4838 78.4517 68.2833 76.4835 68.2704ZM87.6323 67.0405C87.451 67.3641 87.3085 67.7007 87.1403 68.0374C87.1217 68.0802 87.0949 68.1189 87.0613 68.1513C87.0339 68.1803 86.9987 68.201 86.9599 68.2106C86.921 68.2202 86.8803 68.2185 86.8424 68.2057C86.815 68.1976 86.7903 68.1822 86.7709 68.1612C86.7516 68.1403 86.7382 68.1145 86.7324 68.0865C86.7193 68.0277 86.7193 67.9667 86.7324 67.9079C86.8489 67.4923 86.7816 67.1881 86.5886 66.955C86.4107 66.7614 86.1885 66.6135 85.9412 66.5239C85.6175 66.3815 85.2938 66.2261 84.983 66.0579C84.8729 65.9944 84.7966 65.9801 84.7318 66.0229C84.6883 66.0604 84.6544 66.108 84.6334 66.1614C84.3744 66.7182 84.1155 67.2748 83.8306 67.8315C83.74 67.9998 83.7529 68.0904 83.9342 68.1681C84.1932 68.2846 84.4392 68.4011 84.6852 68.5306C84.9985 68.7093 85.2524 68.66 85.4621 68.4335C85.4924 68.3983 85.521 68.3616 85.5476 68.3235C85.5928 68.2562 85.633 68.1499 85.7069 68.1021C85.7612 68.0567 85.8363 68.0438 85.949 68.1163C86.1691 68.2587 86.0784 68.427 86.0008 68.5954C85.7418 69.1261 85.4828 69.6698 85.2239 70.2007C85.2057 70.2356 85.1863 70.2705 85.1669 70.3043C85.0982 70.4336 85.0089 70.5463 84.7966 70.4725C84.5376 70.3689 84.68 70.2007 84.7318 70.0453C84.8743 69.5922 84.8095 69.4498 84.3822 69.2167C83.5353 68.7649 83.4266 68.708 83.0951 69.3462C83.0498 69.4381 83.0006 69.5404 82.9449 69.6595C82.7766 70.022 82.6342 70.3845 82.4399 70.734C82.2457 71.0836 82.3493 71.3295 82.673 71.5238C82.8154 71.6273 83.0485 71.705 82.919 71.9381C82.9028 71.9668 82.8823 71.9931 82.8581 72.0157C82.7222 72.1633 82.55 72.0338 82.3881 71.964C81.7018 71.6402 81.0026 71.3037 80.3164 70.9671C80.1739 70.8894 79.9538 70.8376 80.0444 70.6045C80.0615 70.5476 80.0976 70.4982 80.1467 70.4648C80.2529 70.3793 80.3954 70.4324 80.5236 70.501C80.8084 70.6486 81.0156 70.5877 81.1709 70.3858C81.2029 70.3405 81.2307 70.2925 81.2538 70.2421C81.9919 68.7273 82.717 67.1998 83.4551 65.685C83.6104 65.3484 83.4551 65.1542 83.1832 65.0118C83.0148 64.9212 82.8206 64.8176 82.9501 64.5975C82.966 64.5681 82.9865 64.5414 83.0109 64.5186C83.1404 64.3891 83.3178 64.503 83.4551 64.5716C84.7888 65.206 86.1096 65.8533 87.4433 66.4877C87.71 66.6133 87.7748 66.7686 87.6323 67.0405ZM94.8444 68.0503C94.8055 68.4257 94.7802 68.8141 94.7539 69.1895C94.7413 69.306 94.7277 69.4084 94.5865 69.4096H94.5395C94.4291 69.4031 94.3386 69.3657 94.3269 69.2297C94.2129 68.4076 93.6791 68.1784 92.9643 68.1694H92.9155C92.6241 68.1692 92.3337 68.1432 92.0478 68.0917C91.789 68.0399 91.7239 68.1435 91.7112 68.3765C91.6723 68.9721 91.6334 69.5547 91.5683 70.1502C91.5665 70.1725 91.5665 70.1951 91.5683 70.2175C91.5683 70.3625 91.6361 70.4233 91.7935 70.435C92.0143 70.4479 92.2215 70.4738 92.4287 70.4868C93.0756 70.5385 93.1643 70.4997 93.3805 69.9054C93.3805 69.9054 93.3805 69.8964 93.3805 69.8912C93.4321 69.7618 93.4583 69.6323 93.6393 69.6711C93.7985 69.7061 93.8673 69.7812 93.8718 69.921C93.8736 69.9413 93.8736 69.9616 93.8718 69.9819C93.8202 70.668 93.756 71.3541 93.7035 72.0274C93.6908 72.1827 93.613 72.2474 93.471 72.2345C93.3172 72.2215 93.2394 72.1814 93.2122 72.0015C93.1082 71.2765 93.1082 71.2765 92.3699 71.1988C91.9365 71.1535 91.723 71.1315 91.5999 71.226C91.5131 71.2959 91.4769 71.4292 91.4452 71.6623V71.6985C91.4362 71.7672 91.4289 71.8448 91.4199 71.9303V71.9626C91.381 72.3898 91.3294 72.83 91.3032 73.2572C91.2769 73.7363 91.3683 73.8528 91.8469 73.9563C91.9944 73.99 92.1708 73.9952 92.188 74.1596C92.1916 74.1867 92.1916 74.2141 92.188 74.2411C92.1618 74.4742 91.9546 74.4483 91.7863 74.4354C90.9702 74.3706 90.1547 74.293 89.3389 74.2282C89.1836 74.2153 89.0281 74.1635 89.0411 73.9822C89.0411 73.7751 89.1965 73.7363 89.3777 73.7363C89.9345 73.7234 89.9864 73.7104 90.0381 73.1408C90.1936 71.5238 90.323 69.9042 90.4784 68.3027C90.5043 67.9921 90.3489 67.8496 90.0783 67.759C89.9087 67.7111 89.5901 67.7875 89.6044 67.5C89.6044 67.4819 89.6044 67.4639 89.6108 67.4431C89.6756 67.1065 89.9864 67.3266 90.1676 67.2748L92.3292 67.4677C93.0448 67.5307 93.7623 67.5915 94.4798 67.6502C94.7295 67.6736 94.8489 67.7551 94.858 67.9662C94.8553 67.9944 94.8507 68.0225 94.8444 68.0503ZM103.274 71.9601C103.21 72.4779 103.132 73.0087 103.054 73.5266C103.028 73.7207 102.886 73.7337 102.73 73.7595C101.28 73.9926 99.8296 74.2126 98.3929 74.4457C98.2246 74.4716 98.0563 74.4975 98.0038 74.2904C98.0047 74.2883 98.0047 74.286 98.0038 74.2839C97.9993 74.2734 97.9957 74.2626 97.9921 74.2515C97.9405 74.0444 98.0961 73.9797 98.2644 73.9538C98.6525 73.889 98.7819 73.6431 98.7177 73.2676C98.4589 71.6494 98.2128 70.044 97.9405 68.4257C97.9315 68.3662 97.9197 68.3066 97.9061 68.2484C97.8374 67.9894 97.717 67.8004 97.4094 67.8819C97.214 67.8923 97.0303 67.9286 96.967 67.7887C96.9679 67.7858 96.9679 67.7827 96.967 67.7797C96.967 67.7797 96.967 67.7707 96.967 67.7655C96.9525 67.7282 96.9434 67.6889 96.9407 67.649C96.9281 67.4159 97.1353 67.403 97.3035 67.3771C98.715 67.157 100.114 66.9369 101.525 66.7039C101.758 66.6741 101.903 66.7038 101.968 66.8682C101.997 66.9348 102.014 67.0065 102.016 67.0793C102.024 67.1656 102.033 67.2485 102.045 67.3279C102.073 67.5143 102.108 67.702 102.139 67.8897C102.156 67.9687 102.171 68.049 102.186 68.1279C102.211 68.2704 102.186 68.3998 102.016 68.4386C101.848 68.4775 101.823 68.3351 101.784 68.2315C101.396 67.4547 101.396 67.4547 100.541 67.5712C100.153 67.6231 99.7636 67.7007 99.3628 67.7526C99.1556 67.7784 99.0642 67.8561 99.1031 68.0891C99.2072 68.6976 99.2976 69.319 99.3881 69.9275C99.3908 69.9507 99.3954 69.9736 99.4017 69.9961C99.4442 70.1113 99.5311 70.1398 99.6994 70.1087C100.049 70.031 100.399 70.0051 100.748 69.9275C101.24 69.8239 101.343 69.6686 101.343 69.1636C101.343 69.0342 101.279 68.8659 101.499 68.8271C101.531 68.8197 101.564 68.819 101.596 68.8249C101.628 68.8309 101.659 68.8432 101.686 68.8614C101.713 68.8796 101.736 68.9032 101.754 68.9306C101.772 68.9582 101.784 68.989 101.789 69.0212C101.806 69.0629 101.817 69.1064 101.823 69.1507C101.926 69.798 102.03 70.4583 102.133 71.1056C102.159 71.2739 102.147 71.4292 101.94 71.468C101.763 71.4992 101.728 71.3969 101.694 71.2881C101.688 71.2716 101.683 71.2548 101.678 71.2376C101.678 71.2286 101.678 71.2183 101.667 71.2092C101.447 70.6136 101.331 70.5489 100.683 70.6654L100.217 70.7431C99.5311 70.8596 99.5311 70.8596 99.6342 71.5199C99.7247 72.0766 99.8287 72.6332 99.9192 73.2028C99.9192 73.2262 99.9283 73.2456 99.9337 73.2664C99.9853 73.4061 100.085 73.4554 100.256 73.423C100.8 73.3453 101.331 73.2676 101.862 73.164C102.011 73.1286 102.149 73.0568 102.264 72.9552C102.379 72.8536 102.468 72.7253 102.522 72.5815C102.625 72.3225 102.742 72.0766 102.845 71.8177C102.865 71.7612 102.906 71.7146 102.959 71.6879C103.012 71.6613 103.074 71.6567 103.13 71.6752C103.165 71.6788 103.197 71.6932 103.222 71.7166C103.248 71.7399 103.265 71.7708 103.271 71.8047C103.286 71.8553 103.287 71.9089 103.274 71.9601ZM111.452 69.6167C111.454 69.6314 111.454 69.6461 111.452 69.6608C111.45 69.6688 111.446 69.6765 111.442 69.6841C111.44 69.6889 111.438 69.6937 111.436 69.6983C111.431 69.7053 111.427 69.7118 111.421 69.7178L111.409 69.7333C111.364 69.7709 111.314 69.8031 111.261 69.8291C109.927 70.4894 108.593 71.1496 107.247 71.8099C107.137 71.8694 107.011 71.9212 106.918 71.8513C106.875 71.8269 106.841 71.7898 106.82 71.7451C106.728 71.5639 106.859 71.4862 107.001 71.4085C107.35 71.2144 107.428 70.9684 107.234 70.5929C106.56 69.2853 105.926 67.9778 105.292 66.6573C105.237 66.5216 105.148 66.4028 105.033 66.3129C104.904 66.2313 104.733 66.2378 104.514 66.3724C104.402 66.4346 104.282 66.4527 104.204 66.3724C104.17 66.3464 104.144 66.3121 104.126 66.2727C104.049 66.0915 104.191 66.0009 104.32 65.9362C105.655 65.2759 107.001 64.6286 108.334 63.9683C108.373 63.9415 108.419 63.9253 108.467 63.9213C108.514 63.9172 108.561 63.9253 108.604 63.9451C108.682 63.9806 108.742 64.0446 108.775 64.1237C108.93 64.4474 109.085 64.7581 109.254 65.0817C109.271 65.106 109.284 65.1336 109.289 65.1628C109.295 65.1919 109.295 65.222 109.29 65.2512C109.284 65.2804 109.271 65.308 109.254 65.3323C109.236 65.3566 109.215 65.3771 109.189 65.3924C109.168 65.4184 109.137 65.435 109.104 65.4389C109.071 65.4427 109.037 65.4335 109.01 65.4131C108.953 65.3806 108.904 65.3365 108.865 65.2837C108.722 65.1264 108.56 64.9873 108.382 64.8694C108.174 64.7697 107.994 64.8552 107.532 65.0765C107.156 65.2578 106.781 65.4519 106.392 65.6333C106.224 65.7109 106.198 65.8015 106.289 65.9698C106.548 66.4748 106.806 66.9796 107.04 67.4975C107.054 67.5352 107.075 67.5706 107.1 67.6024C107.164 67.6554 107.236 67.6502 107.35 67.5881C107.7 67.3939 108.063 67.2256 108.412 67.0443C108.736 66.876 108.866 66.6171 108.723 66.2546C108.671 66.1252 108.554 65.9569 108.8 65.8662C108.833 65.8529 108.867 65.8468 108.902 65.8481C108.936 65.8494 108.97 65.8583 109.001 65.874C109.088 65.9186 109.156 65.9944 109.189 66.0864C109.436 66.6042 109.694 67.135 109.953 67.6529C110.031 67.8082 110.082 67.9506 109.901 68.0671C109.787 68.1409 109.711 68.1241 109.655 68.0748C109.598 68.0199 109.55 67.9561 109.512 67.8858C109.442 67.7619 109.334 67.6622 109.206 67.5997C109.114 67.5752 109.018 67.5695 108.924 67.5831C108.83 67.5967 108.74 67.6292 108.658 67.6787C108.334 67.847 107.998 68.0024 107.661 68.1577C107.493 68.2354 107.467 68.3131 107.545 68.4944C107.83 69.051 108.101 69.6077 108.361 70.1644C108.397 70.2544 108.46 70.3306 108.543 70.3819C108.591 70.3934 108.641 70.395 108.69 70.3865C108.739 70.3781 108.785 70.3597 108.827 70.3327C109.241 70.1126 109.655 69.9185 110.07 69.7113C110.562 69.4653 110.743 69.0381 110.782 68.5203C110.794 68.3778 110.794 68.2484 110.808 68.1189C110.813 68.0598 110.839 68.0044 110.881 67.9638C110.925 67.9231 110.982 67.8999 111.041 67.8988C111.081 67.8943 111.122 67.9025 111.157 67.9221C111.197 67.941 111.23 67.9708 111.253 68.008C111.276 68.0452 111.288 68.0881 111.287 68.1318C111.326 68.5979 111.391 69.064 111.455 69.5559C111.46 69.5737 111.463 69.5919 111.463 69.6103L111.452 69.6167ZM97.5171 65.474C96.672 65.5602 95.8234 65.6035 94.9738 65.6035C94.1269 65.6027 93.2792 65.5594 92.4359 65.474C79.8878 64.1858 70.0999 53.5725 70.0999 40.6949C70.0999 27.8173 79.9227 17.2156 92.4803 15.9521C95.95 15.6006 99.4551 15.9815 102.768 17.0702C106.082 18.1589 109.129 19.9312 111.714 22.272C114.299 24.613 116.363 27.4706 117.773 30.6597C119.183 33.8489 119.908 37.2986 119.9 40.7855C119.876 53.6386 110.064 64.2156 97.5171 65.474ZM117.449 65.2409C117.066 65.2504 116.685 65.1876 116.326 65.0558C114.061 64.2143 113.179 61.5474 114.553 59.7091C114.895 59.25 115.363 58.8994 115.899 58.6993C116.158 58.5957 116.34 58.4921 116.158 58.1814C116.08 58.026 116.184 57.9354 116.287 57.8448C116.299 57.8325 116.314 57.8225 116.329 57.8157C116.344 57.8088 116.361 57.8051 116.378 57.8046C116.455 57.7956 116.514 57.8733 116.572 57.9224C117.052 58.2979 117.518 58.6863 117.984 59.0746C118.1 59.1653 118.204 59.2689 118.1 59.4372C118.086 59.4721 118.059 59.5005 118.024 59.5173C117.991 59.5339 117.952 59.5376 117.915 59.5277C117.854 59.5106 117.795 59.4889 117.738 59.4631C117.557 59.3984 117.375 59.3206 117.181 59.2689C117.004 59.2166 116.82 59.1886 116.636 59.186C116.11 59.186 115.652 59.4165 115.265 59.8515C114.759 60.4211 114.643 61.0813 114.928 61.7675C115.133 62.2785 115.438 62.7436 115.825 63.1355C116.211 63.5274 116.673 63.8382 117.181 64.0499C117.424 64.1513 117.685 64.2011 117.948 64.1962C119.067 64.1702 120.073 63.1774 119.978 61.9785C119.965 61.7527 119.94 61.5279 119.9 61.3053C119.875 61.1369 119.914 61.0334 120.094 60.9946C120.119 60.988 120.144 60.9841 120.17 60.983C120.308 60.9713 120.332 61.0761 120.366 61.2017C120.455 61.5312 120.503 61.8704 120.509 62.2115C120.519 63.8661 119.125 65.1451 117.559 65.2383L117.449 65.2409Z" fill="black"/>
<path d="M118.976 40.695C118.952 27.9876 109.051 17.5883 96.549 16.7896C96.0342 16.7562 95.5193 16.739 95.0036 16.7382C94.3522 16.7382 93.7089 16.7643 93.072 16.8167C80.7457 17.8072 71.011 28.1692 71.0238 40.7337C71.0496 53.9615 81.7887 64.6905 95 64.6905C108.211 64.6905 119.002 53.9099 118.976 40.695ZM85.5486 34.8475C86.1667 34.5126 86.1924 34.1519 86.0508 33.5337C85.7418 32.22 85.4069 30.9062 85.2911 29.5538C85.0335 26.5914 85.7546 23.9381 87.6603 21.6197C88.639 20.4232 89.8147 19.6014 91.2118 19.1725C91.6533 19.0354 92.1066 18.9389 92.5662 18.884C93.2692 18.7989 93.974 18.7295 94.7811 18.7076H94.848C94.9575 18.7076 95.0706 18.7076 95.1846 18.7076H95.2796C95.4271 18.7076 95.5782 18.7076 95.7338 18.7076C96.3391 18.7333 97.2149 18.7204 98.116 18.8621C99.2216 19.0361 100.258 19.5081 101.116 20.2274C102.919 21.773 104.194 23.6534 104.748 25.9847C105.069 27.35 104.876 28.7025 104.67 30.0548C104.503 31.1496 104.31 32.2573 104.129 33.3521C104.104 33.5453 104.091 33.7514 104.065 33.9445C104.027 34.2666 104.078 34.4984 104.477 34.6015C104.915 34.7174 105.095 35.0266 105.031 35.4773C104.864 36.7653 104.143 37.7571 103.241 38.6329C103.19 38.6858 103.127 38.727 103.06 38.754C102.866 38.8416 102.661 38.7707 102.469 38.6251C102.109 38.3137 101.694 38.0733 101.246 37.9168C100.879 37.788 100.591 37.788 100.379 37.9001C100.166 38.0121 100.029 38.2864 99.9708 38.6728C99.8034 39.8449 99.6351 41.0299 99.4677 42.2149C99.4551 42.4517 99.4677 42.6892 99.5066 42.9232C99.5365 43.1522 99.4894 43.3845 99.3727 43.5838C99.256 43.7831 99.0769 43.9381 98.8633 44.0245C98.8281 44.0414 98.7919 44.0564 98.7548 44.0695C98.5485 44.1468 98.4716 44.1082 98.4843 43.8764C98.4969 43.4513 98.4843 43.0392 98.4843 42.6141C98.4843 42.4596 98.4589 42.2277 98.3042 42.2149C98.268 42.2124 98.2309 42.22 98.1984 42.2368C98.1468 42.282 98.1052 42.3381 98.0762 42.401C98.0482 42.4639 98.0337 42.5322 98.0337 42.6012C98.021 43.0134 98.0337 43.4127 98.021 43.8249C98.0102 43.9627 98.031 44.1379 97.9025 44.2112C97.8455 44.2462 97.7785 44.2612 97.7116 44.2538C97.4411 44.2409 97.4284 44.0348 97.4411 43.8287C97.4411 43.4681 97.4546 43.1204 97.4284 42.7597C97.4157 42.5923 97.3642 42.3733 97.1579 42.3861C97.1262 42.3865 97.0954 42.3964 97.0692 42.4145C96.9959 42.5093 96.9588 42.6272 96.9652 42.7468C96.9525 43.1332 96.9263 43.5067 96.9389 43.8931C96.9389 44.04 96.91 44.1391 96.8249 44.1739C96.7951 44.1894 96.7625 44.1988 96.729 44.2015C96.6955 44.2042 96.6621 44.2 96.6304 44.1893C96.4114 44.1379 96.0504 44.331 96.0378 43.8931C96.0251 43.6484 96.0378 43.3908 96.0378 43.1461V42.837C96.0251 42.6437 95.9735 42.4119 95.7935 42.399C95.7537 42.3964 95.7139 42.4063 95.6795 42.4274C95.5917 42.5305 95.5465 42.6629 95.551 42.7984C95.5212 43.1496 95.5166 43.5026 95.5384 43.8545C95.551 44.0284 95.4958 44.1056 95.4099 44.1391C95.3094 44.1769 95.2027 44.1898 95.0968 44.1765C94.9032 44.1765 94.6589 44.2151 94.6978 43.8673C94.7358 43.481 94.7358 43.0816 94.7485 42.6824C94.7485 42.5278 94.7485 42.3089 94.5684 42.296C94.5404 42.2938 94.5123 42.2991 94.4879 42.3114C94.3938 42.3927 94.335 42.5072 94.3242 42.6309C94.2726 43.043 94.221 43.4552 94.1948 43.8803C94.1848 44.0515 94.1296 44.1249 94.0536 44.1559C93.9351 44.2242 93.7505 44.1559 93.6157 44.1765C93.3714 44.2151 93.3325 44.0734 93.3579 43.8673C93.3841 43.4552 93.3968 43.0559 93.423 42.6437C93.4357 42.4634 93.3841 42.2574 93.1905 42.2445C93.1733 42.2425 93.1561 42.2425 93.1389 42.2445C93.0258 42.296 92.9951 42.4596 92.9851 42.5884C92.9462 42.9748 92.9209 43.3741 92.882 43.7605C92.8711 43.8751 92.8756 44.0181 92.7526 44.0348C92.7119 44.0505 92.6675 44.0537 92.6241 44.0438C92.4441 44.0052 92.2124 44.0309 92.2251 43.7218C92.2504 43.3741 92.2767 43.0134 92.2767 42.6656C92.2767 42.4853 92.3156 42.2406 92.0704 42.2277C92.0306 42.2253 91.9908 42.2337 91.9546 42.2522C91.8533 42.3462 91.7935 42.4762 91.7872 42.6141C91.7483 42.8975 91.723 43.1937 91.6841 43.4771C91.6714 43.5544 91.6967 43.6574 91.6198 43.6961H91.6054L91.5945 43.7038C91.4914 43.7553 91.4271 43.6523 91.362 43.6008C90.963 43.2401 90.7057 42.8151 90.7057 42.2612C90.6928 41.3725 90.667 40.4709 90.6413 39.5822C90.6391 39.3062 90.6175 39.0308 90.5769 38.7579C90.3966 37.8305 89.8043 37.457 88.8772 37.663C88.7809 37.6843 88.6866 37.7136 88.5952 37.7506C88.3238 37.8753 88.0819 38.0561 87.8857 38.2813C87.8008 38.382 87.6949 38.4629 87.5754 38.5183L87.5561 38.5247H87.5419C87.3513 38.5956 87.1685 38.5247 86.9586 38.3019C86.4049 37.7094 85.8383 37.1169 85.3104 36.4987C84.8017 35.9166 84.8661 35.2081 85.5486 34.8475ZM108.521 57.3875C108.069 57.6838 107.825 58.0315 107.825 58.6111C107.838 59.2938 107.387 59.59 106.357 59.5771C106.072 59.6033 105.787 59.533 105.546 59.3775C105.287 59.1987 105.097 58.9377 105.005 58.6369C104.799 58.0186 104.362 57.658 103.821 57.3489C101.065 55.7775 98.3096 54.1975 95.5537 52.609C95.3936 52.5064 95.2099 52.4475 95.0199 52.4385C94.8299 52.4294 94.6408 52.4705 94.4716 52.5575C91.9609 53.7038 89.4502 54.8244 86.9393 55.9578C86.3091 56.2332 85.7754 56.6907 85.4069 57.2716C84.9809 57.9209 84.4794 58.5175 83.9132 59.049C83.7179 59.2448 83.465 59.373 83.1916 59.4147C82.9183 59.4565 82.6387 59.4096 82.3939 59.2809C81.9277 59.0478 81.7204 58.6871 81.8003 58.0869C81.8003 58.0431 81.8067 58.0006 81.8144 57.9581C81.8252 57.8976 81.8326 57.8366 81.8363 57.7752C81.8427 57.5828 81.8059 57.3913 81.7285 57.2151C81.6512 57.0387 81.5354 56.882 81.3895 56.7564C81.0676 56.4589 80.9362 56.1974 80.9697 55.8896C80.9911 55.6726 81.0597 55.4629 81.1705 55.2752C81.2997 55.0329 81.4647 54.8114 81.6598 54.6183C82.059 54.2191 82.5226 54.0644 83.0506 54.3092C83.6558 54.6054 84.2223 54.5024 84.8275 54.2577C87.2354 53.2659 89.6691 52.3128 92.0903 51.3468C92.2007 51.2979 92.3898 51.294 92.4079 51.1484C92.3916 51.0441 92.2251 50.9823 92.1156 50.9217C89.8108 49.7196 87.5059 48.526 85.2009 47.3411C84.7578 47.1104 84.2519 47.029 83.7588 47.1093C82.6553 47.2793 81.8955 46.6262 81.8749 45.6023C81.8692 45.4471 81.8792 45.2918 81.9045 45.1386C81.9158 45.0203 81.9663 44.9092 82.048 44.8228C82.1296 44.7364 82.2377 44.6799 82.3552 44.6621C82.5745 44.6063 82.8036 44.6019 83.0248 44.6491C83.6686 44.7908 83.6815 44.8038 84.0035 44.2628C84.2609 43.8249 84.6601 43.7475 85.0979 43.812C85.5615 43.8764 85.9736 44.0695 86.0508 44.5719C86.1667 45.2674 86.5788 45.6796 87.171 45.9887C89.5661 47.238 91.9483 48.5132 94.3305 49.7883C94.5268 49.9081 94.7521 49.9746 94.9819 49.9813C95.2126 49.9881 95.4406 49.9349 95.6442 49.8269C98.4119 48.526 101.194 47.2123 103.975 45.9243C104.696 45.5895 105.275 45.1386 105.674 44.4173C106.203 43.4513 107.516 43.4771 108.121 44.4045C108.173 44.4742 108.21 44.5538 108.23 44.6384C108.251 44.7229 108.254 44.8107 108.239 44.8965C108.226 45.0124 108.181 45.1226 108.111 45.2159C108.009 45.3525 107.892 45.4777 107.764 45.5895C107.497 45.8174 107.344 46.0608 107.333 46.3738C107.335 46.4829 107.349 46.5915 107.377 46.6971C107.403 46.7962 107.416 46.8985 107.415 47.0011C107.43 47.4286 107.197 47.7944 106.811 48.0623C106.476 48.3071 106.115 48.3587 105.741 48.1268C105.291 47.8434 104.828 47.8563 104.351 48.0753C102.136 49.1056 99.9255 50.1361 97.7197 51.1665C97.6103 51.2154 97.4619 51.2425 97.4402 51.3739C97.4619 51.5026 97.6075 51.5168 97.7071 51.5658C99.7536 52.609 101.788 53.6652 103.836 54.7084C104.174 54.8849 104.549 54.9818 104.931 54.9918L107.725 55.1077C107.977 55.1115 108.222 55.1892 108.43 55.3312C108.638 55.4731 108.8 55.6731 108.896 55.9063C109.035 56.158 109.076 56.4517 109.014 56.7319C108.94 57.0059 108.763 57.2408 108.521 57.3875Z" fill="black"/>
<path d="M118.976 40.2619C118.964 27.7573 108.968 17.5239 96.3572 16.7382C108.966 17.5239 118.952 27.7573 118.976 40.2619Z" fill="black"/>
<path d="M92.7381 16.7382C80.6011 17.7499 70.9997 28.3335 71.0238 41.1667C71.0111 28.3335 80.6011 17.7499 92.7381 16.7382Z" fill="black"/>
<path d="M125.088 38.6511C125.026 38.7752 124.973 38.9093 124.93 39.0397C124.888 39.17 124.839 39.2991 124.801 39.4307C124.745 39.6269 124.702 39.8243 124.669 40.0229C124.636 40.2216 124.614 40.4203 124.601 40.6214C124.592 40.7542 124.588 40.8883 124.588 41.0224C124.588 41.2906 124.598 41.5599 124.622 41.8294C124.656 42.2689 124.718 42.7096 124.739 43.1479C124.739 43.2112 124.739 43.272 124.739 43.3366C124.739 43.4011 124.739 43.4607 124.739 43.5241C124.74 43.9698 124.645 44.4126 124.46 44.8339C124.387 44.9903 124.387 45.162 124.458 45.3187C124.531 45.4755 124.671 45.6072 124.854 45.6905C124.995 45.5912 124.964 45.4794 124.932 45.3677C124.915 45.3042 124.903 45.2399 124.896 45.1753C124.896 45.1343 124.896 45.0934 124.886 45.0511V45.0387C124.879 44.8567 124.905 44.6748 124.964 44.4987C125.326 43.2651 125.389 41.989 125.153 40.7369C125.113 40.5493 125.092 40.3596 125.088 40.1695C125.091 40.0537 125.118 39.939 125.168 39.8306C125.27 39.6124 125.318 39.3811 125.309 39.1489C125.296 38.9148 125.26 38.682 125.2 38.4524C125.167 38.5145 125.12 38.589 125.088 38.6511Z" fill="black"/>
<path d="M124.405 39.3572C124.67 39.0527 124.968 38.7512 125.31 38.4524C124.968 38.7598 124.67 39.0469 124.405 39.3572Z" fill="black"/>
<path d="M64.8766 28.2571C66.3253 28.9168 67.7618 29.5895 69.1983 30.2621C69.3947 30.3526 69.4929 30.3137 69.6034 30.1456C69.9245 29.6729 70.1041 29.1099 70.1191 28.5288C70.1189 28.4458 70.1145 28.3629 70.1056 28.2805C70.1062 28.2731 70.1062 28.2658 70.1056 28.2585C70.057 27.8539 69.9083 27.4698 69.6746 27.1448C69.574 27.0044 69.4609 26.8745 69.337 26.7568C68.8941 26.3254 68.3527 26.0224 67.7655 25.8772C66.2922 25.502 65.0521 26.304 64.7084 27.8692L64.701 27.9027C64.6716 28.0787 64.6961 28.1743 64.8766 28.2571Z" fill="black"/>
<path d="M68.0353 25.8737C68.6762 25.9971 69.2671 26.2546 69.7506 26.6212C69.8859 26.7214 70.0093 26.8318 70.1191 26.9511C70.0084 26.829 69.8851 26.715 69.7506 26.6103C69.2671 26.2437 68.6762 25.9861 68.0353 25.8627C66.4272 25.5439 65.0738 26.2365 64.6986 27.5558C64.6986 27.5701 64.6985 27.5821 64.6905 27.5953L64.6986 27.5667C65.0738 26.2365 66.4272 25.5549 68.0353 25.8737Z" fill="black"/>
<path d="M78.3381 62.3426C77.7897 61.9541 77.1592 61.8539 76.5287 62.1421C75.0208 62.8188 74.1024 63.9466 73.7734 65.4252C73.746 65.5489 73.7345 65.675 73.7391 65.8012C73.7519 66.0402 73.8231 66.2735 73.9475 66.4841C74.1215 66.7664 74.3752 67.0006 74.6822 67.1625C74.9892 67.3242 75.3381 67.4077 75.6925 67.4039C75.9761 67.4132 76.2569 67.348 76.5013 67.216C77.8857 66.4766 78.8041 65.3989 79.1331 63.9578C79.1525 63.8754 79.1634 63.7915 79.166 63.7072C79.1838 63.1697 78.8494 62.6897 78.3381 62.3426Z" fill="black"/>
<path d="M76.3902 67.2189C76.1356 67.3484 75.8432 67.4123 75.5476 67.4031C75.8418 67.4155 76.1339 67.3559 76.3902 67.2312C77.847 66.5065 78.7897 65.4378 79.1324 64.0375C79.1528 63.9546 79.1642 63.8704 79.1667 63.7857C79.1641 63.8683 79.1526 63.9506 79.1324 64.0314C78.7897 65.4378 77.8328 66.4942 76.3902 67.2189Z" fill="black"/>
<path d="M77.7437 16.6101V16.6311L77.753 16.6658C77.7788 16.7412 77.828 16.7729 77.9216 16.6854C78.3176 16.3416 78.7252 15.9963 79.1667 15.6298C79.0097 15.4791 78.8552 15.3478 78.6982 15.2091C78.2614 14.8261 77.8315 14.4461 77.3572 14.0239C77.4977 14.9588 77.6148 15.7731 77.7319 16.5723C77.7353 16.5852 77.7392 16.5977 77.7437 16.6101Z" fill="black"/>
<path d="M122.457 57.8533C122.593 57.638 122.631 57.3845 122.561 57.1455C122.558 57.1355 122.554 57.1256 122.549 57.116C122.549 57.099 122.536 57.0819 122.53 57.0661C122.48 56.9567 122.412 56.8545 122.328 56.7627C121.832 56.2005 121.124 55.8136 120.332 55.6722C120.127 55.6252 119.912 55.6349 119.714 55.7C119.515 55.7649 119.344 55.8822 119.225 56.0357C119.126 56.1438 119.052 56.2675 119.007 56.4003C118.974 56.5111 118.967 56.6265 118.987 56.7396C119.007 56.8528 119.053 56.9611 119.122 57.0581C119.344 57.3997 119.65 57.6933 120.018 57.9174C120.386 58.1414 120.806 58.2903 121.246 58.3531C121.916 58.3872 122.251 58.2054 122.457 57.8533Z" fill="black"/>
<path d="M119.155 57.1571C119.073 57.0673 119.019 56.9669 118.995 56.862C118.972 56.7573 118.98 56.6502 119.019 56.5476C118.975 56.6516 118.965 56.7609 118.989 56.8679C119.012 56.9749 119.069 57.0771 119.155 57.1677C119.424 57.4816 119.79 57.7512 120.229 57.9567C120.667 58.1624 121.167 58.2991 121.69 58.3572C121.164 58.2989 120.664 58.161 120.226 57.9534C119.787 57.7458 119.421 57.4738 119.155 57.1571Z" fill="black"/>
<path d="M122.568 57.4524C122.615 57.6308 122.59 57.82 122.498 57.9808C122.361 58.2437 122.137 58.3794 121.69 58.354C122.137 58.3794 122.361 58.2522 122.498 57.9893C122.546 57.9091 122.578 57.8202 122.59 57.7279C122.602 57.6356 122.594 57.5419 122.568 57.4524Z" fill="black"/>
<path d="M125.379 52.9287C124.863 52.922 124.39 53.3984 124.405 53.9266C124.401 54.1371 124.488 54.3406 124.646 54.4927C124.806 54.6447 125.023 54.7329 125.252 54.7381C125.77 54.7381 126.214 54.2831 126.214 53.7669C126.214 53.7384 126.214 53.7106 126.214 53.6831C126.198 53.4858 126.104 53.3005 125.951 53.1618C125.797 53.0231 125.594 52.9404 125.379 52.9287ZM125.635 53.8334C125.462 53.9399 125.273 54.033 125.563 54.2059C125.635 54.2458 125.679 54.299 125.621 54.3656C125.595 54.3816 125.565 54.3892 125.534 54.3869C125.505 54.3893 125.475 54.3866 125.447 54.3789C125.292 54.328 125.142 54.2657 124.998 54.1926C124.868 54.1261 124.593 54.1261 124.622 53.9664C124.636 53.8445 124.677 53.7266 124.744 53.6209C124.812 53.5152 124.903 53.4243 125.013 53.3544C125.073 53.3248 125.139 53.3097 125.207 53.3105C125.259 53.3069 125.311 53.3176 125.357 53.3413C125.402 53.365 125.438 53.4006 125.462 53.4436C125.486 53.5033 125.531 53.554 125.59 53.5875C125.649 53.621 125.719 53.6354 125.787 53.6285C125.836 53.6273 125.884 53.6233 125.932 53.6165C125.867 53.8334 125.708 53.7802 125.635 53.8334Z" fill="black"/>
<path d="M124.415 53.9266C124.401 53.3945 124.835 52.9219 125.31 52.9286C124.831 52.9153 124.392 53.3944 124.405 53.9266C124.403 54.0313 124.422 54.1356 124.461 54.2331C124.499 54.3306 124.557 54.4196 124.629 54.4949C124.702 54.5703 124.789 54.6305 124.885 54.6723C124.982 54.7141 125.085 54.7364 125.19 54.7381C124.98 54.7322 124.78 54.6437 124.636 54.4918C124.49 54.3398 124.411 54.1367 124.415 53.9266Z" fill="black"/>
<path d="M96.634 32.4071C97.3026 33.0988 98.0111 33.7521 98.7539 34.364C99.1149 34.6683 99.5727 34.8346 100.045 34.8334C100.266 34.8291 100.485 34.7916 100.694 34.7221L100.999 34.6198L101.318 34.5085C101.417 34.474 101.515 34.4395 101.613 34.4024C101.741 34.355 101.866 34.2982 101.987 34.2323C102.191 34.1193 102.381 33.9823 102.553 33.8242L102.565 33.814C103.383 33.0594 103.791 31.8584 103.504 30.7573C103.427 30.4503 103.261 30.3096 102.955 30.3096H101.959C101.051 30.3863 100.287 30.4375 99.5311 30.5014L97.233 30.6933C97.0493 30.6986 96.8729 30.7623 96.729 30.8751C96.5852 30.9878 96.4802 31.1437 96.4305 31.32C96.3011 31.7165 96.3273 32.1002 96.634 32.4071Z" fill="black"/>
<path d="M98.7095 34.4708C99.0633 34.7066 99.513 34.8353 99.9762 34.8334C99.513 34.8343 99.0642 34.7058 98.7095 34.4708Z" fill="black"/>
<path d="M92.3599 30.7101L87.5299 30.3143C86.8682 30.2614 86.4315 30.6574 86.405 31.3303C86.4004 31.8551 86.4627 32.3783 86.5903 32.8874C86.8139 33.9259 87.8515 34.8668 88.9499 34.8325C89.0239 34.8309 89.0976 34.8247 89.1708 34.814C90.1237 34.814 91.0236 34.682 91.7646 34.075C92.3807 33.5731 92.9127 32.9762 93.3398 32.3068C93.4601 32.1246 93.5488 31.924 93.604 31.713C93.6954 31.4069 93.6284 31.1694 93.3723 31.0163C93.3325 30.9942 93.29 30.9757 93.2466 30.9608C92.9562 30.8553 92.6648 30.7233 92.3599 30.7101Z" fill="black"/>
<path d="M86.4051 31.3274C86.4003 31.8507 86.4649 32.3723 86.5971 32.88C86.8413 33.9418 87.9075 34.8641 89.0573 34.8326C87.9185 34.8615 86.8427 33.9286 86.6108 32.8931C86.4786 32.3855 86.414 31.8638 86.4187 31.3406C86.4462 30.6695 86.899 30.2747 87.585 30.3274L92.5933 30.7222C92.9091 30.7353 93.2104 30.8669 93.5126 30.9721C93.5578 30.9869 93.6013 31.0053 93.6429 31.0274C93.5994 31.001 93.5533 30.9781 93.5054 30.959C93.2122 30.8378 92.9028 30.7537 92.5861 30.709C90.9262 30.5643 89.2522 30.4327 87.5782 30.3143C86.8853 30.2616 86.4325 30.6564 86.4051 31.3274Z" fill="black"/>
<path d="M95.4705 35.2162C95.4415 35.6517 95.456 36.0742 95.456 36.5097H95.4986C95.4986 36.9453 95.4841 37.3677 95.4986 37.8033C95.4877 37.905 95.504 38.0076 95.5465 38.102C95.5881 38.1964 95.6551 38.2797 95.7401 38.3444C95.7971 38.3811 95.8605 38.4088 95.9274 38.4263C96.416 38.5463 97.1208 38.2388 97.2312 37.7901C97.4157 37.0509 96.7345 35.3877 96.0667 34.9522C95.9745 34.8818 95.8605 34.8403 95.741 34.8334C95.5863 34.8426 95.4868 34.9706 95.4705 35.2162Z" fill="black"/>
<path d="M93.6773 37.7844C93.7017 37.9277 93.7659 38.0618 93.8646 38.1721C93.9632 38.2824 94.0916 38.3645 94.2364 38.4093C94.3359 38.4408 94.44 38.4552 94.5449 38.452C94.7548 38.4437 94.953 38.3612 95.1032 38.2206C95.2525 38.08 95.342 37.8912 95.3547 37.6909C95.3855 37.4012 95.4008 37.1114 95.4235 36.7563C95.4316 36.616 95.4415 36.4678 95.4524 36.3062C95.4524 36.0792 95.4524 35.6921 95.4388 35.3049C95.4388 35.1179 95.4108 34.931 95.2154 34.8508C95.1801 34.8367 95.1412 34.831 95.1032 34.8343C95.0652 34.8375 95.0281 34.8497 94.9955 34.8696C94.9349 34.9124 94.877 34.9597 94.8245 35.0111C93.9568 35.7548 93.5099 36.6628 93.6773 37.7844Z" fill="black"/>
<path d="M93.6628 37.8143C93.6773 37.9632 93.7207 38.1027 93.7885 38.216C93.8555 38.3293 93.9442 38.4114 94.0428 38.4524C93.9469 38.4067 93.8609 38.3229 93.7958 38.2103C93.7297 38.0977 93.6872 37.9606 93.6709 37.8143C93.5596 36.6688 93.8573 35.7416 94.4336 34.978C94.4689 34.9255 94.5069 34.8771 94.5476 34.8334C94.5033 34.875 94.4617 34.9234 94.4237 34.978C93.8582 35.7279 93.5605 36.6688 93.6628 37.8143Z" fill="black"/>
</svg>
