<svg width="210" height="90" viewBox="0 0 210 90" fill="none" xmlns="http://www.w3.org/2000/svg">
<path fill-rule="evenodd" clip-rule="evenodd" d="M122.138 31.5H122.25C122.284 40.4166 122.192 49.3366 122.236 58.2532C120.158 58.26 118.08 58.26 116.001 58.2532C116.011 50.3868 116.008 42.52 116.005 34.6532C118.087 33.68 120.233 32.7966 122.138 31.5ZM96.2675 34.72C98.3865 33.8302 100.451 32.8132 102.431 31.6532C102.561 35.6234 102.448 39.6 102.489 43.5732C104.975 42.3 108.024 41.2902 110.731 42.5468C112.606 43.3234 113.034 45.7034 112.408 47.4234C111.858 48.86 110.364 49.5566 109.111 50.3C111.016 52.9268 112.88 55.58 114.806 58.1932C112.221 58.3302 109.627 58.3366 107.043 58.2166C105.573 55.8332 103.99 53.5166 102.53 51.1268C102.441 53.4766 102.502 55.8268 102.492 58.18C100.418 58.3502 98.3289 58.3434 96.2506 58.1868C96.2744 50.3668 96.2406 42.5434 96.2675 34.72ZM102.482 45.1702C102.492 46.72 102.476 48.2702 102.499 49.82C104.68 49.5302 107.236 47.7834 106.473 45.3268C105.736 43.7034 103.637 44.44 102.482 45.1702ZM23.5002 32.3268C26.1898 32.6034 30.1426 31.2268 31.7965 34.0166C32.3839 37.3468 31.9421 40.7932 32.041 44.1702C33.9697 42.6132 36.5847 41.6868 39.0636 42.3502C41.529 42.8332 43.0845 45.2268 43.3524 47.5566C43.6446 50.3 43.4716 53.3732 41.5767 55.5766C40.1604 57.3102 37.9191 58.0434 35.7866 58.5H31.1544C28.5801 58.08 26.1386 56.2966 25.8195 53.6166C25.2013 47.0132 26.2643 40.3 25.3678 33.7268C24.5801 33.4566 23.4833 33.4034 23.5002 32.3268ZM33.4877 45.0332C32.9509 45.2732 31.9694 45.3902 32.0783 46.1566C32.0952 49.56 31.9863 52.9766 32.1324 56.3766C33.1308 57.58 35.2057 56.9332 36.0003 55.7834C37.5965 53.5234 37.5523 50.5868 37.2164 47.9702C36.9853 46.2532 35.4606 44.2834 33.4877 45.0332ZM126.821 33.9102C129.31 32.7166 132.248 35.2268 131.429 37.8068C130.994 40.3634 127.289 41.1 125.642 39.2332C124.182 37.6234 124.746 34.7332 126.821 33.9102ZM43.3459 43.2166C43.1794 41.8332 44.7111 42.3268 45.5703 42.24C47.6417 42.2732 50.6403 41.7166 51.4245 44.2532C52.5183 42.76 54.5932 41.2966 56.4538 42.4702C58.1927 43.3766 57.8567 46.1766 55.9379 46.6302C54.4774 47.22 53.7135 45.1634 52.3653 45.3668C51.6352 46.2502 51.7913 47.4434 51.7645 48.5C51.8256 51.7434 51.8117 54.9868 51.8082 58.2302C49.72 58.32 47.6282 58.3268 45.5395 58.22C45.536 53.9732 45.543 49.7234 45.543 45.4766C45.5768 44.7468 45.2746 44.0732 44.9928 43.42C44.4427 43.3502 43.8926 43.2834 43.3459 43.2166ZM60.587 43.9102C64.0981 41.3166 69.5115 41.4732 72.6289 44.6102C75.2504 46.8902 75.9094 50.9532 74.1839 53.9366C72.6866 56.6868 69.586 58.32 66.4686 58.5H65.7793C62.2374 58.2434 58.7766 56.02 57.6256 52.6434C56.4742 49.5 57.8294 45.8 60.587 43.9102ZM65.4225 43.3634C64.3769 44.0268 64.0643 45.3332 64.027 46.4834C63.9554 49.5566 63.4123 52.7268 64.3361 55.7332C64.6418 56.98 66.2579 57.7268 67.3278 56.8532C68.6488 55.6932 68.4788 53.7532 68.5027 52.1668C68.3874 49.5532 68.8421 46.8 67.8233 44.3132C67.467 43.3434 66.3563 42.98 65.4225 43.3634ZM77.6681 46.32C79.7161 42.9532 84.2325 41.3468 88.0358 42.4102C91.6626 43.3132 94.7567 46.7102 94.4133 50.5132C94.5122 54.7532 90.539 57.9068 86.5419 58.5H84.4467C82.2561 58.0234 80.0864 57.1068 78.6124 55.3868C76.293 53.0102 75.9432 49.1132 77.6681 46.32ZM84.7757 43.3502C83.0408 44.5732 83.3395 46.9902 83.2068 48.8366C83.336 51.3532 82.7416 54.1 84.0253 56.4166C84.8542 57.8502 87.1596 57.2302 87.4623 55.7034C88.158 52.6932 87.832 49.5434 87.6929 46.4868C87.6521 44.96 86.7864 42.5634 84.7757 43.3502ZM125.123 44.5766C127.194 43.7705 129.277 42.995 131.371 42.2502C131.368 47.5634 131.361 52.8732 131.374 58.1834C129.293 58.3442 127.201 58.3465 125.119 58.1902C125.13 53.6532 125.126 49.1132 125.123 44.5766ZM134.492 44.5132C136.384 43.7366 138.279 42.9702 140.174 42.1966C140.177 42.9732 140.18 43.7468 140.187 44.5234C142.571 41.3332 148.296 41.6366 149.865 45.4166C150.667 49.1732 149.322 53.2268 150.714 56.8868C151.523 57.04 152.466 57.1468 152.379 58.1966C150.324 58.2932 148.218 58.4766 146.194 58.02C144.775 57.6566 144.228 56.1302 144.153 54.8366C144.001 52.06 144.211 49.2702 144.062 46.4902C144.031 45.5966 143.366 44.6532 142.36 44.7468C141.176 44.8434 140.72 46.1434 140.758 47.1468C140.734 50.8332 140.758 54.52 140.751 58.2068C138.666 58.3302 136.574 58.3332 134.489 58.2102C134.489 53.6434 134.485 49.08 134.492 44.5132H134.492ZM152.904 53.8234C150.537 48.7766 154.806 41.6966 160.712 42.2702C164.359 42.2532 167.317 45.52 166.943 49.08C163.87 49.14 160.8 49.0834 157.726 49.1132C158.005 50.7702 158.436 52.5634 159.812 53.6902C161.792 55.4166 164.936 55.4834 167.004 53.86C166.987 56.6102 163.972 57.9132 161.649 58.5H159.03C156.426 57.9166 153.964 56.2966 152.904 53.8234ZM158.956 43.82C157.866 44.9102 157.913 46.5732 157.784 47.9932C159.289 48.0132 160.79 48.0068 162.294 48.0034C162.226 46.7234 162.518 45.2902 161.74 44.1634C161.156 43.2702 159.727 43.0068 158.956 43.82ZM174.393 44.5068C176.862 41.3532 182.591 41.6234 184.136 45.4902C184.887 49.24 183.614 53.24 184.945 56.9068C185.464 57.0234 185.984 57.14 186.5 57.28V58.2532C184.12 58.02 181.216 58.94 179.239 57.28C177.711 54.8766 178.547 51.8434 178.34 49.1668C178.224 47.7102 178.866 45.3366 176.988 44.7702C175.426 44.5234 174.917 46.2932 174.927 47.48C174.845 51.0702 174.917 54.6634 174.899 58.2566C172.835 58.26 170.77 58.26 168.709 58.2532C168.709 53.6834 168.705 49.1102 168.712 44.54C170.597 43.74 172.502 42.9834 174.4 42.2132C174.397 42.9766 174.397 43.7434 174.393 44.5068Z" fill="black" style="fill:black;fill:black;fill-opacity:1;"/>
</svg>
