<svg width="190" height="82" viewBox="0 0 190 82" fill="none" xmlns="http://www.w3.org/2000/svg">
<path d="M176.429 51.8315C169.164 51.8315 161.704 51.8315 154.194 51.8315C154.194 44.3547 154.194 36.9268 154.194 29.3684C161.671 36.9432 169.099 44.4363 176.429 51.8315Z" fill="black"/>
<path d="M49.5515 44.4201C49.5515 39.3757 49.5515 34.4129 49.5515 29.4501C50.8249 29.4501 52.0656 29.4501 53.3226 29.4501C53.3226 36.9432 53.3226 44.4201 53.3226 51.9622C52.4574 51.9622 51.6085 51.9785 50.7596 51.9459C50.6453 51.9459 50.531 51.7826 50.4494 51.6683C46.8253 46.9178 43.2175 42.1672 39.5933 37.4167C39.4791 37.2697 39.3648 37.1228 39.1852 36.8943C39.1852 41.9713 39.1852 46.9341 39.1852 51.9459C37.9119 51.9459 36.6875 51.9459 35.4305 51.9459C35.4305 44.4527 35.4305 36.9759 35.4305 29.4338C35.8876 29.4338 36.3773 29.4828 36.8344 29.4175C37.7486 29.2869 38.2873 29.6623 38.8424 30.3806C42.2869 34.9679 45.7805 39.5226 49.2577 44.0772C49.3393 44.1752 49.4209 44.2568 49.5515 44.4201ZM72.3575 29.8746C72.3575 34.2007 72.3575 38.5268 72.3575 42.8529C72.3575 43.2773 72.3738 43.7018 72.4228 44.1099C73.0594 49.9052 79.2792 53.5457 84.6828 51.3255C88.0947 49.9216 90.2659 46.7219 90.2659 43.0488C90.2822 38.641 90.2659 34.2333 90.2659 29.8256C90.2659 29.695 90.2659 29.5644 90.2659 29.4501C88.9762 29.4501 87.7682 29.4501 86.5112 29.4501C86.5112 29.646 86.5112 29.8093 86.5112 29.9562C86.5112 34.266 86.5275 38.5757 86.5112 42.8855C86.4948 46.2974 83.3605 48.7462 80.0465 47.9462C77.7283 47.3912 76.1122 45.3016 76.1122 42.8202C76.1122 38.5268 76.1122 34.217 76.1122 29.9235C76.1122 29.7603 76.1122 29.597 76.1122 29.4175C74.8388 29.4175 73.6308 29.4175 72.3575 29.4175C72.3738 29.6134 72.3575 29.744 72.3575 29.8746ZM13.5714 29.744C13.5714 34.266 13.5714 38.7716 13.5714 43.2936C13.5714 44.3548 13.7836 45.3832 14.1754 46.3627C15.6773 50.0848 19.8402 52.8437 24.705 51.7336C28.3944 50.8847 31.5615 47.3259 31.5452 43.0977C31.5125 38.6737 31.5452 34.266 31.5452 29.8419C31.5452 29.7113 31.5288 29.5807 31.5125 29.4501C30.2392 29.4501 29.0148 29.4501 27.7414 29.4501C27.7414 29.646 27.7414 29.8256 27.7414 30.0052C27.7414 34.168 27.7414 38.3309 27.7414 42.4937C27.7414 42.8529 27.7251 43.2283 27.6925 43.5875C27.4313 46.8362 23.8235 49.1053 20.787 47.9462C18.6158 47.1137 17.3261 45.22 17.3261 42.8692C17.3261 38.5757 17.3261 34.2823 17.3261 29.9725C17.3261 29.8093 17.3261 29.6297 17.3261 29.4501C16.0528 29.4501 14.8448 29.4501 13.5877 29.4501C13.5714 29.5644 13.5714 29.646 13.5714 29.744ZM106.868 30.9683C103.424 28.5686 98.2488 28.8787 95.2123 32.307C93.7104 34.0048 92.8616 35.9311 92.8779 38.2329C92.8942 39.8491 92.8779 41.4652 92.8942 43.0814C92.8942 43.6365 92.9432 44.1915 93.0248 44.7466C93.7594 48.9094 97.5305 52.5989 103.032 51.9948C106.705 51.5867 109.823 48.6972 110.574 45.0567C110.672 44.567 110.721 44.0772 110.803 43.5385C110.101 43.5385 109.497 43.5385 108.893 43.5385C108.272 43.5385 107.652 43.5385 107.064 43.5385C106.901 44.0772 106.803 44.5996 106.591 45.0567C106.379 45.5302 106.085 45.9873 105.758 46.3954C104.452 48.0115 102.15 48.6319 100.175 47.9462C98.0692 47.2279 96.6653 45.3832 96.6163 43.2447C96.5836 41.5469 96.5836 39.8491 96.6163 38.1513C96.6816 34.7067 100.257 32.258 103.489 33.4497C105.415 34.1517 106.542 35.5556 106.917 37.5636C106.934 37.6779 107.097 37.8574 107.179 37.8574C108.338 37.8738 109.48 37.8738 110.705 37.8738C110.509 34.9353 109.252 32.6335 106.868 30.9683ZM60.7994 51.9295C62.0728 51.9295 63.2808 51.9295 64.5541 51.9295C64.5541 45.6608 64.5541 39.4246 64.5541 33.1559C66.1377 33.1559 67.6885 33.1559 69.2394 33.1559C69.2394 31.8988 69.2394 30.6745 69.2394 29.4501C64.848 29.4501 60.4729 29.4501 56.0978 29.4501C56.0978 30.6908 56.0978 31.9152 56.0978 33.1559C57.665 33.1559 59.1832 33.1559 60.7994 33.1559C60.7994 39.4573 60.7994 45.6934 60.7994 51.9295ZM131.748 49.7257C131.748 49.4481 131.666 49.2522 131.47 49.0563C128.793 46.4117 126.132 43.7507 123.454 41.0898C123.34 40.9755 123.161 40.8939 123.014 40.7959C123.03 40.7306 123.046 40.6817 123.046 40.6164C123.161 40.5347 123.308 40.4531 123.405 40.3552C126.099 37.6779 128.776 35.0006 131.47 32.307C131.568 32.209 131.715 32.0784 131.731 31.9641C131.748 31.1316 131.748 30.2827 131.748 29.4175C130.948 29.4175 130.213 29.4338 129.462 29.4175C129.185 29.4175 128.989 29.4991 128.793 29.695C125.25 33.2375 121.708 36.7637 118.165 40.3062C118.035 40.4368 117.888 40.5184 117.724 40.6164C117.839 40.7633 117.888 40.8123 117.92 40.8612C121.577 44.5017 125.218 48.1421 128.874 51.7826C128.956 51.8642 129.07 51.9622 129.168 51.9622C130.001 51.9785 130.85 51.9785 131.731 51.9785C131.748 51.1623 131.731 50.444 131.748 49.7257ZM113.839 51.9459C115.096 51.9459 116.304 51.9459 117.545 51.9459C117.545 44.4364 117.545 36.9596 117.545 29.4501C116.304 29.4501 115.08 29.4501 113.839 29.4501C113.839 36.9596 113.839 44.4364 113.839 51.9459ZM143.077 37.4167C143.077 41.0082 143.061 44.5996 143.093 48.1911C143.11 49.9869 144.334 51.4235 146.081 51.8642C146.309 51.9132 146.538 51.9785 146.766 51.9785C147.877 51.9948 148.987 51.9785 150.129 51.9785C150.129 51.2439 150.129 50.5256 150.129 49.7583C149.966 49.7583 149.819 49.7583 149.672 49.7583C149.068 49.7583 148.448 49.7583 147.844 49.7583C146.473 49.7583 145.64 48.9584 145.64 47.5871C145.624 44.0936 145.64 40.6 145.64 37.1065C145.64 37.0249 145.656 36.9596 145.673 36.829C147.175 36.829 148.644 36.829 150.146 36.829C150.146 36.0943 150.146 35.3924 150.146 34.6414C148.644 34.6414 147.175 34.6414 145.64 34.6414C145.64 32.8783 145.64 31.1642 145.64 29.4501C144.775 29.4501 143.959 29.4501 143.11 29.4501C143.11 29.6134 143.11 29.7603 143.11 29.9072C143.11 31.3438 143.11 32.7967 143.11 34.2333C143.11 34.5435 143.028 34.6414 142.718 34.6251C142.228 34.6088 141.738 34.6251 141.249 34.6251C140.906 34.6251 140.563 34.6251 140.22 34.6251C140.22 35.4087 140.22 36.1107 140.22 36.829C141.183 36.829 142.114 36.829 143.11 36.829C143.077 37.0738 143.077 37.2371 143.077 37.4167ZM138.082 34.6578C137.233 34.6578 136.433 34.6578 135.568 34.6578C135.568 34.8537 135.568 35.0332 135.568 35.1965C135.568 40.6164 135.568 46.0199 135.568 51.4398C135.568 51.5377 135.535 51.652 135.584 51.7173C135.633 51.8153 135.747 51.9785 135.829 51.9785C136.58 51.9948 137.314 51.9948 138.082 51.9948C138.082 46.1832 138.082 40.4205 138.082 34.6578ZM135.551 31.8662C135.551 32.7151 135.453 32.5682 136.27 32.5682C136.874 32.5682 137.478 32.5682 138.082 32.5682C138.082 31.4907 138.082 30.4622 138.082 29.4338C137.249 29.4338 136.449 29.4338 135.551 29.4338C135.551 30.2663 135.551 31.0663 135.551 31.8662Z" fill="black"/>
</svg>
